<?xml version="1.0" ?><!DOCTYPE svg  PUBLIC '-//W3C//DTD SVG 1.1//EN'  'http://www.w3.org/Graphics/SVG/1.1/DTD/svg11.dtd'><svg enable-background="new 0 0 128 128" height="128px" id="Layer_1" version="1.1" viewBox="0 0 128 128" width="128px" xml:space="preserve" xmlns="http://www.w3.org/2000/svg" xmlns:xlink="http://www.w3.org/1999/xlink"><g><path d="M123.701,106.631l-20.058-26.037c-0.554-0.723-1.547-1.163-2.575-1.149   c-0.679,0.009-1.314,0.212-1.792,0.589c-0.662,0.502-1.084,1.238-1.187,2.051c-0.133,0.845,0.083,1.665,0.595,2.327l20.058,26.037   c1.108,1.436,1.727,3.145,1.716,4.708c-0.011,0.751-0.178,2.131-1.227,2.936l-1.721,1.328c-0.519,0.397-1.154,0.601-1.874,0.61   c-1.83,0.023-3.954-1.173-5.397-3.036L90.212,90.967c-0.575-0.764-1.527-1.204-2.566-1.191c-0.699,0.009-1.334,0.213-1.813,0.599   c-0.662,0.502-1.095,1.248-1.217,2.093c-0.103,0.814,0.114,1.644,0.626,2.316l20.037,26.027c2.687,3.462,6.59,5.51,10.446,5.46   l0.021,0c2.087-0.027,4.022-0.679,5.58-1.892l1.721-1.328c2.301-1.778,3.642-4.644,3.663-7.852   C126.724,112.227,125.657,109.177,123.701,106.631z" fill="#2D3E4F"/><path d="M99.782,36.856c-0.318-0.236-0.614-0.504-0.89-0.786l-6.867,5.575c1.221,4.016,1.612,8.34,1.011,12.756   C90.78,70.963,75.475,82.6,58.911,80.344c-16.564-2.256-28.2-17.561-25.944-34.124c0.578-4.244,2.004-8.162,4.115-11.585   c3.253-5.385,8.099-9.608,13.811-12.102c4.932-2.163,10.494-3.034,16.198-2.257c5.515,0.751,10.501,2.953,14.593,6.187l7.006-5.696   c-5.569-4.853-12.553-8.185-20.406-9.254c-8.076-1.1-15.921,0.352-22.719,3.749c-5.522,2.766-10.359,6.797-14.049,11.79   c-3.795,5.118-6.396,11.239-7.313,17.975c-2.915,21.409,12.12,41.184,33.511,44.097c21.409,2.915,41.184-12.12,44.1-33.529   C102.707,49.049,101.915,42.659,99.782,36.856z" fill="#2D3E4F"/><path d="M109.298,16.868c-0.416-0.59-1.058-0.988-1.803-1.11l-10.404-1.751c-1.509-0.243-2.775,0.468-3.104,1.699   c-0.208,0.676-0.121,1.353,0.225,1.925c0.364,0.59,0.971,0.989,1.699,1.127c0.59,0.121,2.41,0.451,3.971,0.746L66.311,46.763   c-1.682-0.971-3.694-1.127-5.462-0.433L48.745,29.665c-1.717,1.162-3.277,2.549-4.63,4.127l12.433,17.15   c-0.746,2.844,0.433,5.844,2.861,7.37c0.225,0.139,0.399,0.243,0.659,0.329c2.827,1.37,6.26,0.538,8.202-1.942   c1.023-1.405,1.509-3.052,1.37-4.717l33.745-27.363c-0.26,1.682-0.59,3.694-0.711,4.387c-0.399,2.272,0.694,3.312,1.855,3.52   c0.607,0.104,1.197-0.017,1.699-0.364c0.641-0.433,1.075-1.179,1.266-2.15l2.22-10.924   C109.871,18.272,109.732,17.492,109.298,16.868z M66.692,54.93c-0.659,1.075-1.838,1.838-3.156,2.029   c-0.867,0.156-1.786-0.017-2.67-0.486l-0.225-0.139c-0.624-0.382-1.127-0.954-1.474-1.543c-0.78-1.509-0.694-3.277,0.243-4.647   c1.249-1.89,3.78-2.428,5.722-1.37l0.173,0.104C67.386,50.179,68.01,52.849,66.692,54.93z" fill="#2E79BE"/><path d="M34.349,9.8c0.624-2.757-0.572-5.618-2.948-7.092c-3.104-1.942-7.214-0.902-9.191,2.272l-0.035,0.052   c0,0-4.509,0.174-4.838,0.208L4.196,6.214C3.381,6.266,2.601,6.63,2.063,7.237C1.491,7.913,1.231,8.694,1.3,9.595   c0,0.243,0.035,0.572,0.156,0.884c0.121,0.312,0.329,0.589,0.486,0.85c0.139,0.156,0.295,0.26,0.433,0.433l0.347,0.208   c0.399,0.243,0.763,0.399,1.353,0.451l17.72-1.114c0.52,1.179,1.37,2.185,2.445,2.861c1.803,1.127,4.075,1.283,6,0.451l1.964,2.777   c1.509-1.405,3.121-2.705,4.803-3.867L34.349,9.8z M31.557,10.736c-0.867,1.405-2.48,2.22-4.11,2.063   c-0.728-0.069-1.37-0.312-1.942-0.659l-0.624-0.399c-1.595-1.456-1.873-3.902-0.676-5.688c1.231-1.977,3.798-2.566,5.792-1.474   l0.174,0.104C32.199,5.95,32.84,8.707,31.557,10.736z" fill="#2E79BE"/></g></svg>