<svg width="128" height="128" xmlns="http://www.w3.org/2000/svg">
 <g>
  <title>background</title>
  <rect x="-1" y="-1" width="130" height="130" id="canvas_background" fill="none"/>
 </g>

 <g>
  <title>Layer 1</title>
  <g id="svg_38" stroke="null">
   <rect stroke="null" id="svg_11" height="76.911709" width="3.761985" y="26.066642" x="61.178507" fill-opacity="null" stroke-opacity="null" stroke-width="12.506938" fill="#3e3e3f"/>
   <path d="m51.976409,113.329618c0.328561,-1.13266 0.815289,-2.221123 1.448972,-3.212494l-25.186517,-14.537916c-0.559747,1.036743 -1.267225,1.994732 -2.091448,2.836586l25.828992,14.913824z" id="svg_35" stroke-width="12.506938" fill="#3e3e3f"/>
   <path d="m74.023451,113.329618c-0.328561,-1.13266 -0.815289,-2.221123 -1.448949,-3.212494l25.186493,-14.537916c0.559747,1.036743 1.267225,1.994732 2.091448,2.836586l-25.828992,14.913824z" id="svg_34" stroke-width="12.506938" fill="#3e3e3f"/>
   <path d="m74.023451,16.174068c-0.328561,1.13266 -0.815289,2.221123 -1.448949,3.212494l25.186493,14.537916c0.559747,-1.036508 1.267225,-1.994732 2.091448,-2.836586l-25.828992,-14.913824z" id="svg_33" stroke-width="12.506938" fill="#3e3e3f"/>
   <path d="m51.905859,16.222026l-25.719605,14.838831c0.722476,0.71091 1.352421,1.515385 1.865927,2.392033c0.090086,0.140818 0.170957,0.286339 0.252885,0.430448l25.070289,-14.476323c-0.593248,-0.871005 -1.060205,-1.828524 -1.360156,-2.856804c-0.038672,-0.109316 -0.074782,-0.218398 -0.10934,-0.328185z" id="svg_32" stroke-width="12.506938" fill="#3e3e3f"/>
   <path d="m61.189508,24.461335l-0.102852,22.010227c1.333097,0.340879 2.627851,0.850083 3.834893,1.505981l-0.11021,-23.435337c-1.199801,0.176317 -2.422547,0.140583 -3.621831,-0.080871zm-32.280686,18.572047c-0.404988,1.137362 -0.979781,2.213835 -1.697038,3.180992l15.089765,8.80127c0.591484,-1.10774 1.300208,-2.160705 2.115803,-3.122455l-15.508529,-8.859807zm68.124455,0.036674l-17.066019,9.748914c1.12154,0.726191 2.135057,1.617649 2.968001,2.652041l15.8318,-9.234539c-0.003056,0 -0.005407,-0.002351 -0.007288,-0.007053c-0.084562,-0.10673 -0.169241,-0.220514 -0.249782,-0.330771c-0.011519,-0.016456 -0.017867,-0.028211 -0.029386,-0.043962c-0.070292,-0.096857 -0.138632,-0.194889 -0.205703,-0.293862c-0.066131,-0.097797 -0.128124,-0.193714 -0.19101,-0.293862c-0.026589,-0.042081 -0.054893,-0.082281 -0.0808,-0.124832c-0.009404,-0.014105 -0.019983,-0.028211 -0.029386,-0.044197c-0.148788,-0.246609 -0.29057,-0.504972 -0.418764,-0.76404c-0.067659,-0.136352 -0.129417,-0.271528 -0.19101,-0.411406c-0.121494,-0.27623 -0.233843,-0.564214 -0.330582,-0.852198l-0.000071,-0.000235zm-5.87723,35.851104c-0.755459,1.042621 -1.67092,1.961584 -2.710884,2.703526l8.624835,4.929586c0.422244,-1.127488 1.008838,-2.202316 1.741118,-3.166416l-7.655069,-4.466695zm-56.362637,0.029386l-7.559599,4.407923c0.260784,0.337823 0.500011,0.68552 0.719961,1.050614c0.443355,0.665302 0.796435,1.37104 1.057901,2.100992l8.514649,-4.870578c-1.051131,-0.740766 -1.983189,-1.645389 -2.732912,-2.68895zm26.293246,4.709307l0.102852,21.481041c1.199284,-0.221219 2.42203,-0.256952 3.621831,-0.080636l0.095517,-21.371254c-1.272655,-0.009404 -2.547427,-0.016456 -3.8202,-0.029151z" id="svg_31" stroke-width="12.506938" fill="#3e3e3f"/>
   <path d="m15.428172,50.328063l0,28.69969c0.743352,-0.177492 1.510683,-0.270117 2.296516,-0.266591c0.128852,-0.007053 0.254202,-0.007053 0.382749,-0.007053c0.274467,0 0.54764,0.007053 0.820203,0.027505l0,-28.084462c-1.172837,0.058067 -2.353972,-0.070527 -3.499467,-0.36909z" id="svg_30" stroke-width="12.506938" fill="#3e3e3f"/>
   <path d="m110.576343,50.437614c-1.148998,0.274114 -2.333989,0.337353 -3.506285,0.225451l0,28.111497c0.075087,0 0.150151,-0.007053 0.225568,-0.007053c0.137269,-0.009404 0.27315,-0.018807 0.410066,-0.018807c0.973928,-0.024449 1.938687,0.094976 2.870651,0.327949l0,-28.637626l0,-0.001411z" id="svg_29" stroke-width="12.506938" fill="#3e3e3f"/>
   <path d="m13.768652,46.517502c-4.044997,-2.395787 -5.381956,-7.617076 -2.986167,-11.662089c2.395787,-4.044999 7.617076,-5.381956 11.662089,-2.986167c4.044997,2.395787 5.381956,7.617076 2.986167,11.662089c-2.381689,4.02118 -7.560008,5.370154 -11.600909,3.022069" id="svg_28" fill="#3e3e3f"/>
   <path d="m103.555354,46.517502c-4.044997,-2.395787 -5.381956,-7.617076 -2.986167,-11.662089c2.395787,-4.044999 7.617076,-5.381956 11.662089,-2.986167c4.044997,2.395787 5.381956,7.617076 2.986167,11.662089c-2.381689,4.02118 -7.560008,5.370154 -11.600907,3.022069" id="svg_27" fill="#3e3e3f"/>
   <path d="m58.662015,20.406873c-4.044997,-2.395787 -5.381956,-7.617076 -2.986167,-11.662089c2.395787,-4.044999 7.617076,-5.381956 11.662089,-2.986167c4.044997,2.395787 5.381956,7.617076 2.986167,11.662089c-2.381689,4.02118 -7.560008,5.370154 -11.600909,3.022069" id="svg_26" fill="#3e3e3f"/>
   <path d="m13.768652,97.581698c-4.044997,-2.395787 -5.381956,-7.617076 -2.986167,-11.662089c2.395787,-4.044999 7.617076,-5.381956 11.662089,-2.986167c4.044997,2.395787 5.381956,7.617076 2.986167,11.662089c-2.381689,4.02118 -7.560008,5.370154 -11.600909,3.022069" id="svg_25" fill="#3e3e3f"/>
   <path d="m103.555354,97.581698c-4.044997,-2.395787 -5.381956,-7.617076 -2.986167,-11.662089c2.395787,-4.044999 7.617076,-5.381956 11.662089,-2.986167c4.044997,2.395787 5.381954,7.617076 2.986167,11.662089c-2.381689,4.02118 -7.560008,5.370154 -11.600909,3.022069" id="svg_24" fill="#3e3e3f"/>
   <path d="m58.662015,109.096934c-4.044997,2.395787 -5.381956,7.617076 -2.986167,11.662089c2.395787,4.044997 7.617076,5.381956 11.662089,2.986167c4.044997,-2.395787 5.381956,-7.617076 2.986167,-11.662089c-2.381689,-4.02118 -7.560008,-5.370154 -11.600909,-3.022069" id="svg_23" fill="#3e3e3f"/>
   <rect id="svg_9" height="76.911709" width="3.552987" y="25.021646" x="61.178507" fill-opacity="null" stroke-opacity="null" stroke-width="12.506938" stroke="null" fill="#3e3e3f"/>
   <rect id="svg_12" height="76.911709" width="3.552987" y="26.48464" x="61.178507" fill-opacity="null" stroke-opacity="null" stroke-width="12.506938" stroke="null" fill="#3e3e3f"/>
   <rect id="svg_10" height="76.911709" width="3.552987" y="26.48464" x="61.178507" fill-opacity="null" stroke-opacity="null" stroke-width="12.506938" stroke="null" fill="#3e3e3f"/>
   <rect transform="rotate(60.109195709228516 62.53700256347655,65.14949798583984) " stroke="null" id="svg_13" height="76.911709" width="3.552987" y="26.693639" x="60.760509" fill-opacity="null" stroke-opacity="null" stroke-width="12.506938" fill="#3e3e3f"/>
   <rect transform="rotate(120.18783569335938 63.372997283935554,65.14949798583984) " stroke="null" id="svg_14" height="76.911709" width="3.552987" y="26.693639" x="61.596506" fill-opacity="null" stroke-opacity="null" stroke-width="12.506938" fill="#3e3e3f"/>
   <path stroke-width="5" fill="none" stroke="#ffffff" id="svg_15" d="m81.96819,86.33337c0,0 0,-2.51101 -0.20925,-3.82358c-0.17121,-1.03674 -1.60743,-2.40638 -7.71375,-4.65107c-6.0112,-2.20665 -5.64025,-1.13186 -5.64025,-5.19322c0,-2.63466 1.3411,-1.10333 2.19713,-6.10632c0.3329,-1.96886 0.59922,-0.65629 1.32208,-3.81407c0.38046,-1.65498 -0.2568,-1.77863 -0.18071,-2.56808c0.07609,-0.78944 0.15218,-1.49329 0.29485,-3.11023c0.17121,-1.99739 -1.68352,-7.25719 -8.33198,-7.25719c-6.64847,0 -8.50319,5.2598 -8.32248,7.26671c0.14268,1.60742 0.21877,2.32078 0.29486,3.11022c0.07609,0.78945 -0.56117,0.9131 -0.18072,2.56808c0.72287,3.14827 0.98919,1.8357 1.32209,3.81407c0.85602,5.00299 2.19713,3.47166 2.19713,6.10632c0,4.07087 0.37094,2.99609 -5.64026,5.19322c-6.10632,2.23518 -7.55205,3.61433 -7.71374,4.65107c-0.21877,1.30306 -0.21877,3.81407 -0.21877,3.81407l18.26189,0l18.26188,0z"/>
   <path fill="#2e79be" id="svg_7" d="m81.968188,86.333373c0,0 0,-2.511009 -0.209251,-3.823582c-0.171205,-1.036742 -1.607426,-2.406383 -7.713743,-4.651073c-6.011203,-2.206644 -5.640258,-1.131856 -5.640258,-5.193223c0,-2.634657 1.341107,-1.103322 2.197133,-6.106317c0.332899,-1.968859 0.599218,-0.656286 1.322084,-3.81407c0.380456,-1.654983 -0.256808,-1.778631 -0.180717,-2.568077c0.076091,-0.789446 0.152182,-1.493289 0.294853,-3.110227c0.171205,-1.997393 -1.683517,-7.257196 -8.331984,-7.257196c-6.648466,0 -8.503189,5.259802 -8.322472,7.266707c0.142671,1.607426 0.218762,2.320781 0.294853,3.110227c0.076091,0.789446 -0.561172,0.913094 -0.180717,2.568077c0.722866,3.148272 0.989185,1.8357 1.322084,3.81407c0.856026,5.002995 2.197133,3.47166 2.197133,6.106317c0,4.070878 0.370944,2.99609 -5.640258,5.193223c-6.106317,2.235178 -7.552049,3.614331 -7.713743,4.651073c-0.218762,1.303061 -0.218762,3.81407 -0.218762,3.81407l18.261882,0l18.261882,0z"/>
  </g>
 </g>
</svg>