<svg width="128" height="128" xmlns="http://www.w3.org/2000/svg">

 <g>
  <title>background</title>
  <rect fill="none" id="canvas_background" height="130" width="130" y="-1" x="-1"/>
 </g>
 <g>
  <title>Layer 1</title>
  <g stroke="null" id="svg_1">
   <path stroke="null" id="svg_2" fill="#2e79be" d="m92.875927,80.258807l-9.705378,0c-0.928682,1.309746 -1.852131,2.609901 -2.775581,3.910055l10.179747,0l5.991523,10.785788l-16.469495,0l0,3.910055l18.639035,0l9.211825,16.581983l-42.53188,0l0,-8.796753l-3.910055,0l0,8.796753l-42.615592,0l8.753152,-16.581983l18.629443,0l0,-3.910055l-16.567159,0l5.693299,-10.785788l11.196501,0c-0.92345,-1.300154 -1.847771,-2.604669 -2.771221,-3.910055l-10.785788,0l-20.633303,39.096193l102.189,0l-21.718073,-39.096193z"/>
   <path stroke="null" id="svg_3" fill="#414143" d="m96.443286,37.96324c-3.333662,-18.14025 -20.912343,-30.144225 -39.106657,-26.795738c-15.80503,2.902893 -27.363411,16.849688 -27.386955,34.390873c0.06104,5.690683 2.089316,12.134775 6.166796,17.902194c8.270936,11.696158 16.573263,23.38534 24.867743,35.074522c1.444035,2.035252 3.556023,2.035252 4.999185,0.015696c8.29448,-11.696158 16.619479,-23.362668 24.859895,-35.08237c5.416002,-7.703262 7.304758,-16.258471 5.599995,-25.505176zm-47.648785,3.786231l-4.931169,0c0.928682,-9.309489 8.353776,-16.734583 17.663265,-17.663265l0,4.931169c0,1.090002 0.883338,1.97334 1.97334,1.97334s1.97334,-0.883338 1.97334,-1.97334l0,-4.931169c9.309489,0.928682 16.734583,8.353776 17.663265,17.663265l-4.931169,0c-1.090002,0 -1.97334,0.883338 -1.97334,1.97334c0,1.090002 0.883338,1.97334 1.97334,1.97334l4.931169,0c-0.92781,9.309489 -8.352904,16.734583 -17.662393,17.663265l0,-4.931169c0,-1.090002 -0.883338,-1.97334 -1.97334,-1.97334s-1.97334,0.883338 -1.97334,1.97334l0,4.931169c-9.309489,-0.928682 -16.734583,-8.353776 -17.663265,-17.663265l4.931169,0c1.090002,0 1.97334,-0.883338 1.97334,-1.97334c-0.000872,-1.090002 -0.88421,-1.97334 -1.974212,-1.97334z"/>
   <circle stroke="null" id="svg_4" r="6.308059" fill="#2e79be" cy="42.850809" cx="63.499936"/>
  </g>
 </g>
</svg>