<svg width="128" height="128" xmlns="http://www.w3.org/2000/svg">
 <g>
  <title>background</title>
  <rect x="-1" y="-1" width="130" height="130" id="canvas_background" fill="none"/>
 </g>

 <g>
  <title>Layer 1</title>
  <g id="svg_1" stroke="null">
   <path d="m62.37407,23.81503c16.3695,0 32.73901,0.09236 49.10852,-0.05089c5.57147,-0.049 10.553,3.93359 10.51908,10.52851c-0.04713,9.06213 -0.08294,18.12614 -0.0754,27.18827c0.00943,8.86422 0.08859,17.72656 0.12063,26.59078c0.01696,4.94761 -2.71411,8.86046 -7.09062,10.06108c-1.09696,0.30156 -2.27873,0.41842 -3.42281,0.41842c-32.81817,0.01131 -65.63822,-0.00565 -98.4564,-0.01131c-2.90259,0 -5.53943,-0.70303 -7.61837,-2.8517c-2.00919,-2.07705 -2.65757,-4.66866 -2.65757,-7.46759c-0.00377,-12.29645 0.00377,-24.59289 0.00566,-36.89123c0,-5.82969 -0.03393,-11.65938 0.00188,-17.48719c0.03016,-4.97399 3.30029,-8.95281 8.07261,-9.89521c0.58052,-0.11497 1.18931,-0.13194 1.78491,-0.13194c16.56929,-0.00754 33.13859,-0.00565 49.70788,-0.00565c0,0.00188 0,0.00377 0,0.00565zm40.05393,67.84157c0,-20.26351 0,-40.43655 0,-60.67178c-28.6358,0 -57.1962,0 -85.81881,0c0,20.24843 0,40.42523 0,60.67178c28.61507,0 57.1472,0 85.81881,0zm15.84364,-30.33024c0.00943,-3.2739 -2.69715,-5.9522 -6.02571,-5.96351c-3.30594,-0.01131 -5.98613,2.68207 -5.97294,6.00309c0.01131,3.23432 2.69715,5.89943 5.95598,5.90697c3.33044,0.00754 6.03325,-2.65191 6.04267,-5.94655z" fill="#414143" id="svg_2" stroke="null"/>
   <g id="svg_3" stroke="null">
    <path d="m24.457595,83.57645l0,-47.802348l-2.895056,0l0,7.019003l-1.820719,0c-0.785962,0 -1.423025,0.637063 -1.423025,1.423025l0,0.016963c0,0.785962 0.637063,1.423025 1.423025,1.423025l1.786792,0l0,5.384879l-1.788677,0c-0.785962,0 -1.423025,0.637063 -1.423025,1.423025l0,0.020733c0,0.785962 0.637063,1.423025 1.423025,1.423025l1.790562,0l0,5.251058l-1.790562,0c-0.785962,0 -1.423025,0.637063 -1.423025,1.423025l0,0c0,0.785962 0.637063,1.423025 1.423025,1.423025l1.799986,0l0,5.264252l-1.790562,0c-0.785962,0 -1.423025,0.637063 -1.423025,1.423025l0,0.045235c0,0.785962 0.637063,1.423025 1.423025,1.423025l1.790562,0l0,5.322681l-1.788677,0c-0.785962,0 -1.423025,0.637063 -1.423025,1.423025l0,0.054659c0,0.785962 0.637063,1.423025 1.423025,1.423025l1.833912,0l0,8.161193l46.360474,0l0,-2.966678l-43.488036,0l0,-0.001885l0.000001,0.000005z" fill="#414143" id="svg_4" stroke="null"/>
    <path d="m67.821235,52.677006c0,0.075392 -0.018848,0.113088 -0.018848,0.169632c-0.150784,0.791617 -0.490049,1.545538 -0.980097,2.224066c-1.036641,1.413601 -2.714115,2.261762 -4.466981,2.261762c-0.301568,0 -0.603137,-0.018848 -0.904705,-0.075392c-0.565441,-0.09424 -1.112033,-0.263872 -1.602082,-0.527745l-0.018848,0c-3.204163,3.675364 -6.314087,7.294184 -9.254378,10.781067c0.621985,1.112033 0.848161,2.393699 0.640833,3.656516c-0.433504,2.695267 -2.751811,4.636613 -5.465926,4.636613c-0.301568,0 -0.621985,-0.018848 -0.904705,-0.075392c-1.470146,-0.245024 -2.751811,-1.036641 -3.61882,-2.242914c-0.867009,-1.206273 -1.206273,-2.676419 -0.961249,-4.127716c0.131936,-0.735073 0.395808,-1.451298 0.791617,-2.073282c-0.018848,-0.037696 -0.037696,-0.056544 -0.075392,-0.075392c-0.753921,-0.791617 -1.52669,-1.602082 -2.261762,-2.37485c-0.829313,-0.885857 -1.677474,-1.790562 -2.525635,-2.676419c-1.074337,0.565441 -2.299458,0.772769 -3.486884,0.565441c-1.319361,-0.207328 -2.525635,-0.904705 -3.373796,-1.922498c-0.4712,-0.603137 -0.848161,-1.281665 -1.055489,-2.016738c-0.226176,-0.791617 -0.28272,-1.62093 -0.150784,-2.431395c0.452352,-2.695267 2.751811,-4.655461 5.484774,-4.655461c0.301568,0 0.603137,0.037696 0.904705,0.075392c1.470146,0.245024 2.751811,1.036641 3.599972,2.242914c0.867009,1.206273 1.206273,2.676419 0.961249,4.146564c-0.09424,0.640833 -0.301568,1.225121 -0.621985,1.790562c0.018848,0.018848 0.037696,0.037696 0.056544,0.037696c1.545538,1.639778 3.185315,3.354948 4.806245,5.126661c0.037696,0.037696 0.075392,0.075392 0.09424,0.09424c0.998945,-0.452352 2.148674,-0.603137 3.241859,-0.433504c0.565441,0.09424 1.093185,0.28272 1.602082,0.527745c0.075392,-0.056544 0.169632,-0.150784 0.263872,-0.28272c3.091075,-3.61882 5.955974,-6.954919 8.820873,-10.234475c0.075392,-0.09424 0.131936,-0.18848 0.18848,-0.245024c-0.621985,-1.112033 -0.867009,-2.412547 -0.659681,-3.675364c0.452352,-2.695267 2.751811,-4.636613 5.484774,-4.636613c0.301568,0 0.603137,0.018848 0.904705,0.075392c1.451298,0.245024 2.732963,1.036641 3.599972,2.242914c0.867009,1.206273 1.206273,2.676419 0.961249,4.127716l0.000002,0.000001z" fill="#1D75B9" id="svg_5" stroke="null"/>
   </g>
  </g>
  <g fill="#1D75B9" stroke="null" id="svg_14">
   <g stroke="null" transform="rotate(52.77851104736328 94.50001525878908,29.161796569824222) matrix(1.2402512971709911,0,0,1.2402512971709911,-100.09617266885016,-135.43437926114166) " id="svg_26">
    <path stroke-width="4" fill="#414143" stroke="#ffffff" id="svg_23" d="m156.900108,106.526957c0,0 -10.073,7.816 -10.073,27.016c0,12.314 3.724,20.013 8.573,21.329l0,-12.394c0,-0.828 0.671,-1.5 1.5,-1.5s1.5,0.672 1.5,1.5l0,12.394c4.849,-1.315 8.573,-9.015 8.573,-21.329c0,-19.422 -10.073,-27.016 -10.073,-27.016zm-0.118,14.818c-1.729,0 -3.418,-0.155 -4.914,-0.438c1.465,-4.721 3.531,-7.901 5.051,-9.761c1.516,1.837 3.572,4.989 5.027,9.715c-1.554,0.314 -3.334,0.484 -5.164,0.484z"/>
    <path stroke-width="4" fill="#414143" stroke="#ffffff" id="svg_24" d="m144.124108,142.030957c-3.007,0 -5.444,2.081 -5.444,4.648l0,12.218l9.862,-7.296c-1.463,-2.496 -2.556,-5.737 -3.201,-9.57l-1.217,0z"/>
    <path stroke-width="4" fill="#414143" stroke="#ffffff" id="svg_25" d="m169.676108,142.030957l-1.216,0c-0.645,3.833 -1.738,7.074 -3.201,9.57l9.862,7.296l0,-12.218c-0.001,-2.567 -2.438,-4.648 -5.445,-4.648z"/>
   </g>
   <g stroke="null" transform="rotate(52.77851104736328 94.50001525878908,29.161796569824222) matrix(1.2402512971709911,0,0,1.2402512971709911,-100.09617266885016,-135.43437926114166) " id="svg_18">
    <path stroke-width="0" fill="#1D75B9" id="svg_19" d="m156.900108,106.526957c0,0 -10.073,7.816 -10.073,27.016c0,12.314 3.724,20.013 8.573,21.329l0,-12.394c0,-0.828 0.671,-1.5 1.5,-1.5s1.5,0.672 1.5,1.5l0,12.394c4.849,-1.315 8.573,-9.015 8.573,-21.329c0,-19.422 -10.073,-27.016 -10.073,-27.016zm-0.118,14.818c-1.729,0 -3.418,-0.155 -4.914,-0.438c1.465,-4.721 3.531,-7.901 5.051,-9.761c1.516,1.837 3.572,4.989 5.027,9.715c-1.554,0.314 -3.334,0.484 -5.164,0.484z"/>
    <path stroke-width="0" fill="#1D75B9" id="svg_20" d="m144.124108,142.030957c-3.007,0 -5.444,2.081 -5.444,4.648l0,12.218l9.862,-7.296c-1.463,-2.496 -2.556,-5.737 -3.201,-9.57l-1.217,0z"/>
    <path stroke-width="0" fill="#1D75B9" id="svg_21" d="m169.676108,142.030957l-1.216,0c-0.645,3.833 -1.738,7.074 -3.201,9.57l9.862,7.296l0,-12.218c-0.001,-2.567 -2.438,-4.648 -5.445,-4.648z"/>
   </g>
  </g>
 </g>
</svg>