<svg width="128" height="128" xmlns="http://www.w3.org/2000/svg">

 <g>
  <title>background</title>
  <rect fill="none" id="canvas_background" height="402" width="582" y="-1" x="-1"/>
 </g>
 <g>
  <title>Layer 1</title>
  <g id="svg_1">
   <path id="svg_2" fill="#3e3e3f" d="m38.502,101.061l-9.727,14.368c-16.394,-11.224 -27.154,-30.108 -27.154,-51.481c0,-11.731 3.228,-22.703 8.861,-32.071l14.263,10.064c-3.671,6.499 -5.76,14.01 -5.76,22.006c0,15.382 7.722,28.991 19.517,37.114z"/>
   <path id="svg_3" fill="#2E79BE" d="m39.304,26.307c-3.439,2.236 -6.541,4.958 -9.22,8.039l-14.264,-10.043c11.457,-13.904 28.78,-22.745 48.17,-22.745c27.408,0 50.701,17.681 59.056,42.261l-16.964,4.178c-6.414,-17.006 -22.829,-29.074 -42.092,-29.074c-5.718,0 -11.183,1.076 -16.225,3.038c-2.997,1.139 -5.824,2.595 -8.461,4.346z"/>
   <path id="svg_4" fill="#3e3e3f" d="m126.379,63.948c0,-3.861 -0.359,-7.659 -1.034,-11.33l-16.921,4.157c0.401,2.321 0.591,4.726 0.591,7.174c0,15.444 -7.786,29.095 -19.664,37.197l0.038,0.052c-2.491,1.715 -5.182,3.188 -8.049,4.383l-0.049,-0.068c-5.317,2.236 -11.161,3.46 -17.301,3.46c-6.14,0 -11.984,-1.224 -17.301,-3.46l-9.874,14.601c4.207,2.044 8.688,3.624 13.365,4.683l-0.033,0.086c8.894,2.038 18.402,2.137 27.879,-0.052c9.703,-2.242 18.365,-6.646 25.566,-12.597l-0.049,-0.042c13.939,-11.439 22.836,-28.794 22.836,-48.244z"/>
   <path id="svg_5" fill="#2E79BE" d="m50.283,87.177c3.271,0 6.436,0 9.673,0c0,-17.718 0,-35.27 0,-52.866c-3.282,0 -6.479,0 -9.673,0c0,17.681 0,35.267 0,52.866z"/>
   <path id="svg_6" fill="#2E79BE" d="m67.409,87.175c3.268,0 6.433,0 9.681,0c0,-8.875 0,-17.641 0,-26.433c-3.275,0 -6.472,0 -9.681,0c0,8.849 0,17.636 0,26.433z"/>
   <path id="svg_7" fill="#2E79BE" d="m33.15,87.176c3.266,0 6.43,0 9.678,0c0,-11.813 0,-23.421 0,-35.086c-3.28,0 -6.477,0 -9.678,0c0,11.764 0,23.414 0,35.086z"/>
   <path id="svg_8" fill="#2E79BE" d="m84.505,87.17c3.231,0 6.393,0 9.72,0c0,-14.593 0,-29.066 0,-43.649c-3.265,0 -6.46,0 -9.72,0c0,14.591 0,29.063 0,43.649z"/>
  </g>
 </g>
</svg>