<svg width="128" height="128" xmlns="http://www.w3.org/2000/svg">

 <g>
  <title>background</title>
  <rect fill="none" id="canvas_background" height="402" width="582" y="-1" x="-1"/>
 </g>
 <g>
  <title>Layer 1</title>

  <g stroke="null" id="svg_38">
   <g stroke="null" transform="matrix(0.23508920343056391,0,0,0.23508920343056391,-2100.582357600581,-2104.8304641039517) " id="svg_22">
    <path fill="#2e79be" id="svg_36" d="m9177.774891,9162.596504c-30.1282,0 -54.6906,23.82 -55.9013,53.65c-19.6601,2.734 -34.7858,19.307 -34.7858,39.347c0,19.187 13.4935,39.335 32.3004,39.335l163.7288,0c20.0326,0 36.2749,-16.342 36.2749,-37.013c0,-20.137 -15.4131,-36.564 -34.7272,-37.401c-0.1843,-20.509 -16.3567,-37.072 -36.2748,-37.072c-8.2238,0 -15.805,2.825 -21.8892,7.586c-9.6082,-16.974 -27.8292,-28.432 -48.7258,-28.432z"/>
    <path fill="#3e3e3f" stroke-width="12.506938" id="svg_35" d="m9156.348891,9435.397504c1.3976,-4.818 3.468,-9.448 6.1635,-13.665l-107.136,-61.84c-2.381,4.41 -5.3904,8.485 -8.8964,12.066l109.8689,63.439z"/>
    <path fill="#3e3e3f" stroke-width="12.506938" id="svg_34" d="m9250.130491,9435.397504c-1.3976,-4.818 -3.468,-9.448 -6.1634,-13.665l107.1359,-61.84c2.381,4.41 5.3904,8.485 8.8964,12.066l-109.8689,63.439z"/>
    <path fill="#3e3e3f" stroke-width="12.506938" id="svg_33" d="m9250.130491,9022.126504c-1.3976,4.818 -3.468,9.448 -6.1634,13.665l107.1359,61.84c2.381,-4.409 5.3904,-8.485 8.8964,-12.066l-109.8689,-63.439z"/>
    <path fill="#3e3e3f" stroke-width="12.506938" id="svg_32" d="m9156.048791,9022.330504l-109.4036,63.12c3.0732,3.024 5.7528,6.446 7.9371,10.175c0.3832,0.599 0.7272,1.218 1.0757,1.831l106.6416,-61.578c-2.5235,-3.705 -4.5098,-7.778 -5.7857,-12.152c-0.1645,-0.465 -0.3181,-0.929 -0.4651,-1.396z"/>
    <path fill="#3e3e3f" stroke-width="12.506938" id="svg_31" d="m9195.538691,9057.161504l-0.4375,93.625c5.6706,1.45 11.1781,3.616 16.3125,6.406l-0.4688,-99.687c-5.1036,0.75 -10.3048,0.598 -15.4062,-0.344zm-137.3125,79c-1.7227,4.838 -4.1677,9.417 -7.2187,13.531l64.1874,37.438c2.516,-4.712 5.5307,-9.191 9,-13.282l-65.9687,-37.687zm289.7813,0.156l-72.5938,41.469c4.7707,3.089 9.0819,6.881 12.625,11.281l67.3438,-39.281c-0.013,0 -0.023,-0.01 -0.031,-0.03c-0.3597,-0.454 -0.7199,-0.938 -1.0625,-1.407c-0.049,-0.07 -0.076,-0.12 -0.125,-0.187c-0.299,-0.412 -0.5897,-0.829 -0.875,-1.25c-0.2813,-0.416 -0.545,-0.824 -0.8125,-1.25c-0.1131,-0.179 -0.2335,-0.35 -0.3437,-0.531c-0.04,-0.06 -0.085,-0.12 -0.125,-0.188c-0.6329,-1.049 -1.236,-2.148 -1.7813,-3.25c-0.2878,-0.58 -0.5505,-1.155 -0.8125,-1.75c-0.5168,-1.175 -0.9947,-2.4 -1.4062,-3.625l-0.0003,-0.001zm-25,152.5c-3.2135,4.435 -7.1076,8.344 -11.5313,11.5l36.6875,20.969c1.7961,-4.796 4.2913,-9.368 7.4062,-13.469l-32.5624,-19zm-239.75,0.125l-32.1563,18.75c1.1093,1.437 2.1269,2.916 3.0625,4.469c1.8859,2.83 3.3878,5.832 4.5,8.937l36.2188,-20.718c-4.4712,-3.151 -8.4359,-6.999 -11.625,-11.438zm111.8437,20.032l0.4375,91.374c5.1014,-0.941 10.3026,-1.093 15.4062,-0.343l0.4063,-90.907c-5.4135,-0.04 -10.836,-0.07 -16.25,-0.124z"/>
    <path fill="#3e3e3f" stroke-width="12.506938" id="svg_30" d="m9000.883491,9167.407504l0,122.08c3.162,-0.755 6.426,-1.149 9.7687,-1.134c0.5481,-0.03 1.0813,-0.03 1.6281,-0.03c1.1675,0 2.3295,0.03 3.4889,0.117l0,-119.463c-4.9889,0.247 -10.0131,-0.3 -14.8857,-1.57z"/>
    <path fill="#3e3e3f" stroke-width="12.506938" id="svg_29" d="m9405.615691,9167.873504c-4.8875,1.166 -9.9281,1.435 -14.9147,0.959l0,119.578c0.3194,0 0.6387,-0.03 0.9595,-0.03c0.5839,-0.04 1.1619,-0.08 1.7443,-0.08c4.1428,-0.104 8.2466,0.404 12.2109,1.395l0,-121.816l0,-0.006z"/>
    <path fill="#3e3e3f" id="svg_28" d="m8993.824377,9151.198499c-17.206221,-10.190974 -22.893243,-32.400792 -12.702269,-49.607084c10.190974,-17.206221 32.400792,-22.893243 49.607084,-12.702269c17.206221,10.190974 22.893243,32.400792 12.702269,49.607084c-10.131,17.104906 -32.158038,22.84305 -49.346837,12.85499"/>
    <path fill="#3e3e3f" id="svg_27" d="m9375.750478,9151.198499c-17.206221,-10.190974 -22.893244,-32.400792 -12.702269,-49.607084c10.190974,-17.206221 32.400792,-22.893243 49.607084,-12.702269c17.20622,10.190974 22.893243,32.400792 12.702269,49.607084c-10.131,17.104906 -32.158038,22.84305 -49.346837,12.85499"/>
    <path fill="#3e3e3f" id="svg_26" d="m9184.787477,9040.131599c-17.206221,-10.190974 -22.893243,-32.400792 -12.702269,-49.607084c10.190974,-17.206221 32.400792,-22.893243 49.607084,-12.702269c17.206221,10.190974 22.893243,32.400792 12.702269,49.607084c-10.131,17.104906 -32.158038,22.84305 -49.346837,12.85499"/>
    <path fill="#3e3e3f" id="svg_25" d="m8993.824377,9368.410499c-17.206221,-10.190974 -22.893243,-32.400792 -12.702269,-49.607084c10.190974,-17.206221 32.400792,-22.893243 49.607084,-12.702269c17.206221,10.190974 22.893243,32.400792 12.702269,49.607084c-10.131,17.104906 -32.158038,22.84305 -49.346837,12.85499"/>
    <path fill="#3e3e3f" id="svg_24" d="m9375.750477,9368.410499c-17.206221,-10.190974 -22.893243,-32.400792 -12.702269,-49.607084c10.190974,-17.206221 32.400792,-22.893243 49.607084,-12.702269c17.206221,10.190974 22.893243,32.400792 12.702269,49.607084c-10.131,17.104906 -32.158038,22.84305 -49.346837,12.85499"/>
    <path fill="#3e3e3f" id="svg_23" d="m9184.787477,9417.392909c-17.206221,10.190974 -22.893243,32.400792 -12.702269,49.607084c10.190974,17.206221 32.400792,22.893243 49.607084,12.702269c17.206221,-10.190974 22.893243,-32.400792 12.702269,-49.607084c-10.131,-17.104906 -32.158038,-22.84305 -49.346837,-12.85499"/>
   </g>
  </g>
 </g>
</svg>