<svg width="128" height="128" xmlns="http://www.w3.org/2000/svg">

 <g>
  <title>background</title>
  <rect fill="none" id="canvas_background" height="130" width="130" y="-1" x="-1"/>
 </g>
 <g>
  <title>Layer 1</title>
  <g stroke="null" id="svg_1">
   <path stroke="null" id="svg_2" fill="#2E79BE" d="m111.668792,46.385324l-31.03004,0c-1.842145,0 -3.340972,1.498827 -3.340972,3.340972l0,46.493072c0,1.842145 1.498827,3.340972 3.340972,3.340972l19.837881,0c-0.81023,-0.912244 -1.257524,-2.101105 -1.239868,-3.358629c0,-1.222211 0.017656,-2.462079 0,-3.68429l-17.426809,0c-0.912244,0 -1.669505,-0.739605 -1.669505,-1.669505l0,-39.899409c0,-0.929901 0.757261,-1.669505 1.669505,-1.669505l28.687632,0c0.912244,0 1.669505,0.739605 1.669505,1.669505l0,5.373413l2.840709,0l0,-6.595625c0.001962,-1.842145 -1.496865,-3.340972 -3.33901,-3.340972zm-15.514039,47.577956c1.049571,0 1.910809,0.861237 1.910809,1.910809c0,1.067228 -0.861237,1.910809 -1.910809,1.910809s-1.910809,-0.843581 -1.910809,-1.910809c-0.001962,-1.049571 0.859275,-1.910809 1.910809,-1.910809z"/>
   <path stroke="null" id="svg_3" fill="#3E3E3F" d="m95.171883,20.970001l-77.485837,0c-4.443513,0 -8.041483,3.59797 -8.041483,8.041483l0,49.953715c0,0.413943 0.035313,0.81023 0.08632,1.204555l-8.198428,0l0,1.27518c0,4.443513 3.615626,8.041483 8.059139,8.041483l63.935576,0l0,-9.314701l-58.063861,0l0,-52.865049l81.92935,0l0,14.998081l5.820707,0l0,-13.293264c0,-4.441551 -3.59797,-8.041483 -8.041483,-8.041483zm-44.476325,63.023331c0,-0.500263 0.274654,-0.894588 0.619934,-0.894588l10.228907,0c0.34528,0 0.619934,0.396287 0.619934,0.894588l0,1.135891c0,0.500263 -0.274654,0.894588 -0.619934,0.894588l-10.228907,0c-0.34528,0 -0.619934,-0.396287 -0.619934,-0.894588l0,-1.135891z"/>
   <path stroke="null" id="svg_4" fill="#3E3E3F" d="m125.61534,69.424888c0,-2.703382 0,-5.389108 -0.017656,-8.09249c0,-1.997128 -1.308531,-3.288003 -3.30566,-3.288003c-5.991385,0 -11.984732,0.017656 -17.960423,0c-1.791138,-0.017656 -3.427292,1.343844 -3.374323,3.323316c0.035313,0.861237 0,1.704818 0,2.566055c0,6.199338 0,12.398676 0.017656,18.596052c0,4.563183 0.017656,9.126367 -0.017656,13.68955c-0.017656,1.963778 1.567491,3.340972 3.358629,3.323316c5.958034,-0.017656 11.916069,-0.035313 17.874103,0.017656c1.808794,0.017656 3.442987,-1.239868 3.427292,-3.409636c-0.035313,-5.785395 0,-11.570789 0,-17.356184l0,-9.369632l-0.001962,0zm-12.277043,28.877928c-1.067228,0 -1.963778,-0.912244 -1.963778,-1.997128c0,-1.067228 0.878893,-1.928465 1.963778,-1.928465c1.067228,0 1.946121,0.861237 1.946121,1.946121c0,1.067228 -0.878893,1.961816 -1.946121,1.979472zm11.039137,-5.200774l-22.093969,0l0,-30.512121l22.092007,0l0,30.512121l0.001962,0z"/>
  </g>
 </g>
</svg>