<svg width="128" height="128" xmlns="http://www.w3.org/2000/svg">

 <g>
  <title>background</title>
  <rect fill="none" id="canvas_background" height="130" width="130" y="-1" x="-1"/>
 </g>
 <g>
  <title>Layer 1</title>
  <g stroke="null" id="svg_1">
   <path stroke="null" id="svg_2" fill="#2E79BE" d="m64.050184,120.384012l0.648858,0.002631c0.132402,0.007892 0.265681,0.008768 0.383177,0.008768c2.587541,-0.01929 3.470514,-1.534462 4.046594,-3.83177c0.179751,-0.721635 0.772492,-1.508156 1.608116,-2.256974c1.945697,-1.75367 5.216292,-3.289009 7.626712,-3.28024c0.676917,0.231484 1.900102,0.412989 2.700652,1.042557c2.806749,2.369209 4.537622,0.644474 6.55785,-1.279303c2.042149,-1.9229 1.797512,-3.634482 0.449816,-5.821309c-2.21927,-3.620452 0.9198,-10.883278 5.360093,-11.79431c2.278895,-0.426142 3.042618,-1.491497 3.291639,-2.890926c0.044719,-0.220962 0.075408,-0.44894 0.091191,-0.684808l0.010522,-2.683116c-0.118373,-1.78436 -0.717251,-3.090844 -3.353895,-3.654649c-3.358279,-0.713744 -5.943189,-5.072491 -6.01772,-8.684175c-0.025428,-1.157422 0.20781,-2.240314 0.748817,-3.100489c1.365232,-2.228038 1.665987,-3.885257 -0.404221,-5.876549c-1.953589,-1.886949 -3.723042,-3.62659 -6.547328,-1.330159c-0.805812,0.675163 -2.029873,0.795289 -2.709421,1.043434c-3.442455,-0.03595 -8.574571,-3.217985 -9.191863,-5.630159c-0.58748,-2.412174 -1.466068,-3.971186 -4.371023,-3.857198l-0.677794,-0.002631c-2.889172,-0.136786 -3.823878,1.415212 -4.429771,3.823001c-0.591864,2.407789 -5.79325,5.54949 -9.235705,5.558258c-0.676917,-0.253405 -1.907993,-0.383177 -2.700652,-1.064478c-2.806749,-2.318352 -4.545514,-0.592741 -6.55785,1.279303c-2.042149,1.974633 -1.797512,3.634482 -0.450693,5.873042c2.21927,3.568719 -0.918923,10.831545 -5.367108,11.742577c-2.633136,0.542761 -3.243413,1.844861 -3.374939,3.628344l-0.010522,2.683116c0.118373,1.732626 0.717251,3.090844 3.34688,3.602916c4.44117,0.946105 7.523246,8.233482 5.32765,11.836398c-1.416089,2.176305 -1.673878,3.885257 0.353365,5.823939c1.997431,1.938683 3.723042,3.677447 6.547328,1.330159c0.798797,-0.62343 2.029873,-0.795289 2.709421,-1.021513c3.486297,0.013153 8.618413,3.196064 9.191863,5.608238c0.58748,2.41305 1.50991,3.972063 4.399959,3.858075zm-18.417046,-30.962803l0.010522,-2.719943c0.907524,-9.725856 9.060338,-17.315741 18.95893,-17.358706c7.672308,0.096452 14.229281,4.713866 17.17457,11.322573c0.854914,1.912378 1.399429,4.000122 1.589702,6.182565l-0.007015,1.879935l-0.003507,0.840008c-0.761093,8.075652 -6.572756,14.701018 -14.202099,16.683543c-1.505526,0.399837 -3.075938,0.60677 -4.698083,0.615538c-3.125041,-0.034197 -6.07033,-0.826856 -8.666639,-2.193842c-5.619637,-2.961949 -9.585562,-8.630689 -10.156382,-15.251671z"/>
   <path stroke="null" id="svg_3" fill="#414143" d="m106.463578,12.753372l-83.927155,0c-6.287785,0 -11.430423,5.142638 -11.430423,11.430423l0,71.060476c0,6.287785 5.142638,11.430423 11.430423,11.430423l13.71984,0l0,-4.562173l-13.71984,0c-3.775652,0 -6.86825,-3.092598 -6.86825,-6.86825l0,-60.057071l69.57424,0c0.392822,0 0.700591,-0.307769 0.700591,-0.700591l0,-7.141822c0,-0.444555 0.358626,-0.785644 0.785644,-0.785644l18.521389,0c0.478752,0 0.871574,0.376162 0.871574,0.854037l0,7.005036c0,0.427019 0.341966,0.768984 0.768984,0.768984l6.441231,0l0,60.057071c0,3.775652 -3.092598,6.86825 -6.86825,6.86825l-13.652324,0l0,4.562173l13.651447,0c6.287785,0 11.430423,-5.142638 11.430423,-11.430423l0,-71.060476c0.000877,-6.287785 -5.141761,-11.430423 -11.429546,-11.430423zm-83.721975,16.709848c-2.306953,0 -4.356994,-2.015844 -4.391191,-4.339457c-0.050856,-2.392006 2.084237,-4.544637 4.476244,-4.51044c2.289417,0.034197 4.373654,2.101774 4.40785,4.373654c0.051733,2.35781 -2.08336,4.51044 -4.492903,4.476244zm13.618127,0c-2.477936,0.034197 -4.425387,-1.999184 -4.356994,-4.544637c0.034197,-2.392006 2.101774,-4.373654 4.425387,-4.306138c2.408666,0.068393 4.254404,2.033381 4.237744,4.459584c-0.018414,2.477936 -1.846615,4.374531 -4.306138,4.391191zm13.51466,0.034197c-2.323613,0 -4.356994,-2.033381 -4.40785,-4.322797c-0.050856,-2.426203 2.050041,-4.562173 4.459584,-4.578833c2.25522,0 4.340334,2.067577 4.391191,4.373654c0.067516,2.375346 -2.034258,4.527977 -4.442924,4.527977z"/>
  </g>
 </g>
</svg>