<?xml version="1.0" ?><!DOCTYPE svg  PUBLIC '-//W3C//DTD SVG 1.1//EN'  'http://www.w3.org/Graphics/SVG/1.1/DTD/svg11.dtd'><svg enable-background="new 0 0 64 64" height="64px" id="Layer_1" version="1.1" viewBox="0 0 64 64" width="64px" xml:space="preserve" xmlns="http://www.w3.org/2000/svg" xmlns:xlink="http://www.w3.org/1999/xlink"><g><path d="M62.08,45.654c-0.737-0.096-1.569,0.065-2.28,0.323c-4.282,1.555-8.356,3.367-12.621,4.968   c-0.211,0.079-0.454,0.168-0.591,0.329c-1.11,1.308-2.573,1.837-4.213,1.856c-2.653,0.032-5.305,0.12-7.958,0.183   c-1.799,0.043-3.598,0.089-5.398,0.122c-0.454,0.008-1.027-0.498-1.057-1.03c-0.03-0.532,0.333-0.713,0.795-0.759   c0.183-0.018,0.368-0.031,0.552-0.036c2.237-0.057,4.474-0.112,6.711-0.168c2.352-0.059,4.707-0.075,7.057-0.19   c1.643-0.081,2.76-1.303,2.787-2.877c0.029-1.69-1.281-2.968-3.063-2.934c-2.64,0.05-5.979-0.311-8.686-0.73   c-3.22-0.499-4.787-2.148-7.912-3.152c-4.814-1.547-9.742-0.986-14.713-0.884c-0.009-0.346-0.017-0.692-0.026-1.038   c-0.028-1.093-0.559-1.569-1.666-1.544c-2.904,0.066-5.808,0.138-8.712,0.209c-0.179,0.004-0.357,0.027-0.68,0.053   c0.162,1.548,0.272,3.056,0.485,4.55c0.793,5.571,2.734,10.721,5.779,15.451c0.139,0.216,0.489,0.412,0.746,0.418   c0.99,0.027,1.982-0.019,2.972-0.054c0.982-0.034,1.522-0.591,1.499-1.591c-0.006-0.284-0.013-0.567-0.02-0.851   c0.005,0.001,0.008,0.003,0.013,0.004c2.235,0.636,4.458,1.309,6.69,1.953c4.155,1.2,8.286,2.495,12.478,3.548   c3.477,0.874,6.982,0.977,10.287-0.843c7.002-3.855,14.01-7.699,21.006-11.565c0.349-0.193,0.665-0.51,0.898-0.839   C64.03,47.42,63.434,45.829,62.08,45.654z" fill="#414143"/><path d="M58.357,12.062c-0.393-0.857-0.858-1.69-1.383-2.477c-3.343-4.996-8.912-7.979-14.898-7.979   c-5.987,0-11.557,2.983-14.898,7.979c-0.524,0.786-0.99,1.62-1.383,2.477c-0.882,1.916-1.411,3.955-1.572,6.059l-0.018,0.231   h-0.038v2.301l0.056,0.174c0.161,2.104,0.69,4.142,1.572,6.059c0.393,0.855,0.857,1.689,1.383,2.477   c3.342,4.996,8.912,7.979,14.898,7.979c5.985,0,11.556-2.983,14.898-7.979c0.525-0.788,0.99-1.621,1.383-2.477   c0.881-1.914,1.409-3.953,1.572-6.059l0.021-0.279c0.021-0.353,0.031-0.693,0.033-1.034v-0.08   c-0.002-0.341-0.013-0.682-0.033-1.019l-0.021-0.294C59.766,16.015,59.238,13.976,58.357,12.062z M29.606,10.179   c1.526-2.034,3.545-3.681,5.836-4.761l0.793-0.374L35.758,5.78c-0.969,1.498-1.757,3.304-2.342,5.37l-0.062,0.219l-0.224-0.041   c-1.16-0.212-2.301-0.466-3.39-0.757l-0.357-0.096L29.606,10.179z M26.559,18.079c0.171-1.857,0.67-3.651,1.483-5.332l0.092-0.19   l0.202,0.059c1.338,0.389,2.77,0.724,4.255,0.996l0.244,0.045l-0.043,0.244c-0.235,1.351-0.385,2.768-0.444,4.211l-0.01,0.24   h-5.805L26.559,18.079z M28.336,26.332l-0.202,0.059l-0.092-0.19c-0.813-1.681-1.313-3.475-1.483-5.332l-0.025-0.273h5.805   l0.01,0.24c0.06,1.444,0.209,2.861,0.444,4.211l0.043,0.244l-0.244,0.045C31.104,25.609,29.672,25.944,28.336,26.332z    M35.442,33.53c-2.292-1.082-4.311-2.728-5.836-4.762l-0.222-0.296l0.357-0.095c1.091-0.291,2.231-0.545,3.39-0.756l0.224-0.041   l0.062,0.219c0.585,2.065,1.373,3.872,2.342,5.37l0.477,0.736L35.442,33.53z M40.913,34.826l-0.356-0.167   c-1.304-0.613-2.521-1.966-3.521-3.915c-0.5-0.98-0.931-2.066-1.277-3.228l-0.085-0.284l0.294-0.036   c1.523-0.185,3.102-0.3,4.689-0.343l0.257-0.007V34.826z M40.913,24.518l-0.244,0.006c-1.796,0.044-3.577,0.175-5.295,0.389   l-0.235,0.029l-0.042-0.233c-0.22-1.231-0.359-2.527-0.417-3.853l-0.011-0.261h6.244V24.518z M40.913,18.352h-6.244l0.011-0.261   c0.058-1.326,0.197-2.622,0.417-3.853l0.042-0.233l0.235,0.029c1.718,0.214,3.499,0.345,5.295,0.389l0.244,0.006V18.352z    M40.913,12.101l-0.257-0.007c-1.588-0.043-3.166-0.159-4.689-0.343l-0.294-0.036l0.085-0.284c0.347-1.161,0.776-2.247,1.277-3.227   c1-1.949,2.218-3.302,3.521-3.915l0.356-0.167V12.101z M48.708,5.418c2.293,1.082,4.311,2.728,5.836,4.761l0.222,0.296   l-0.357,0.096c-1.091,0.291-2.231,0.545-3.39,0.757l-0.224,0.041l-0.062-0.219c-0.584-2.065-1.372-3.872-2.342-5.37l-0.477-0.736   L48.708,5.418z M43.239,4.122l0.356,0.167c1.304,0.613,2.521,1.966,3.521,3.915c0.501,0.981,0.931,2.067,1.277,3.228l0.085,0.284   l-0.294,0.036c-1.523,0.185-3.102,0.3-4.689,0.343l-0.257,0.007V4.122z M43.239,14.43l0.244-0.006   c1.796-0.044,3.577-0.175,5.295-0.389l0.235-0.029l0.042,0.233c0.22,1.231,0.359,2.527,0.417,3.853l0.011,0.261h-6.244V14.43z    M43.239,20.596h6.244l-0.011,0.261c-0.058,1.326-0.197,2.622-0.417,3.853l-0.042,0.233l-0.235-0.029   c-1.718-0.214-3.499-0.345-5.295-0.389l-0.244-0.006V20.596z M43.595,34.659l-0.356,0.167v-7.979l0.257,0.007   c1.588,0.043,3.166,0.159,4.689,0.343l0.294,0.036l-0.085,0.284c-0.347,1.162-0.777,2.248-1.277,3.227   C46.117,32.692,44.899,34.046,43.595,34.659z M54.544,28.768c-1.524,2.033-3.542,3.679-5.836,4.762l-0.793,0.375l0.477-0.736   c0.97-1.498,1.758-3.304,2.342-5.37l0.062-0.219l0.224,0.041c1.156,0.211,2.297,0.465,3.39,0.756l0.357,0.095L54.544,28.768z    M57.592,20.869c-0.171,1.857-0.67,3.651-1.483,5.332l-0.092,0.19l-0.202-0.059c-1.336-0.388-2.768-0.724-4.255-0.997l-0.244-0.045   l0.043-0.244c0.234-1.343,0.384-2.76,0.444-4.211l0.01-0.24h5.805L57.592,20.869z M51.813,18.352l-0.01-0.24   c-0.061-1.451-0.21-2.868-0.444-4.211l-0.043-0.244l0.244-0.045c1.485-0.272,2.917-0.607,4.255-0.996l0.202-0.059l0.092,0.19   c0.813,1.681,1.313,3.475,1.483,5.332l0.025,0.273H51.813z" fill="#1D75B9"/></g></svg>