<svg width="128" height="128" xmlns="http://www.w3.org/2000/svg">

 <g>
  <title>background</title>
  <rect fill="none" id="canvas_background" height="402" width="582" y="-1" x="-1"/>
 </g>
 <g>
  <title>Layer 1</title>
  <g id="svg_1">
   <path id="svg_2" fill="#2E79BE" d="m46.817,96.538l0.92,0c0.188,0.01 0.376,0.01 0.544,0.01c3.669,-0.042 4.912,-2.195 5.717,-5.456c0.251,-1.024 1.087,-2.143 2.268,-3.209c2.749,-2.498 7.379,-4.693 10.797,-4.693c0.962,0.324 2.697,0.575 3.836,1.463c3.993,3.345 6.439,0.888 9.292,-1.85c2.885,-2.738 2.529,-5.163 0.606,-8.257c-3.167,-5.122 1.244,-15.438 7.536,-16.755c3.23,-0.617 4.306,-2.132 4.651,-4.118c0.063,-0.314 0.105,-0.638 0.125,-0.972l0,-3.805c-0.178,-2.529 -1.035,-4.379 -4.777,-5.163c-4.766,-0.993 -8.456,-7.16 -8.581,-12.281c-0.042,-1.641 0.282,-3.177 1.045,-4.4c1.923,-3.167 2.341,-5.519 -0.606,-8.33c-2.78,-2.665 -5.299,-5.122 -9.292,-1.85c-1.139,0.962 -2.874,1.139 -3.836,1.495c-4.881,-0.031 -12.177,-4.515 -13.065,-7.933c-0.847,-3.418 -2.101,-5.623 -6.219,-5.446l-0.962,0c-4.097,-0.178 -5.414,2.028 -6.261,5.446c-0.826,3.418 -8.184,7.902 -13.065,7.933c-0.962,-0.355 -2.707,-0.533 -3.836,-1.495c-3.993,-3.271 -6.449,-0.815 -9.292,1.85c-2.885,2.812 -2.529,5.163 -0.606,8.33c3.167,5.048 -1.244,15.365 -7.546,16.682c-3.731,0.784 -4.589,2.634 -4.766,5.163l0,3.805c0.178,2.456 1.035,4.379 4.766,5.09c6.303,1.317 10.714,11.633 7.62,16.755c-1.996,3.094 -2.352,5.519 0.533,8.257c2.843,2.738 5.299,5.195 9.292,1.85c1.129,-0.888 2.874,-1.139 3.836,-1.463c4.944,0 12.24,4.484 13.065,7.902c0.846,3.417 2.163,5.622 6.261,5.445zm-26.288,-43.806l0,-3.857c1.233,-13.797 12.752,-24.605 26.789,-24.72c10.881,0.094 20.204,6.606 24.416,15.961c1.223,2.707 2.007,5.665 2.289,8.759l0,2.665l0,1.192c-1.035,11.456 -9.24,20.884 -20.047,23.737c-2.132,0.575 -4.359,0.878 -6.658,0.899c-4.432,-0.031 -8.613,-1.139 -12.302,-3.062c-7.985,-4.171 -13.64,-12.187 -14.487,-21.574z"/>
   <path id="svg_3" fill="#3e3e3f" d="m54.656,71.317c1.934,-7.954 7.369,-14.518 14.57,-17.988c0.031,-0.272 0.063,-0.543 0.094,-0.815l0,-3.418c-0.22,-2.205 -0.742,-4.306 -1.526,-6.271c-2.268,1.192 -4.787,2.007 -6.857,2.017c-0.962,-0.355 -2.707,-0.533 -3.836,-1.495c-3.993,-3.272 -6.449,-0.815 -9.292,1.85c-2.885,2.812 -2.529,5.163 -0.606,8.33c3.167,5.048 -1.244,15.365 -7.546,16.682c-0.564,0.115 -1.056,0.261 -1.495,0.439c2.812,1.275 5.926,1.986 9.198,2.017c2.54,-0.021 4.996,-0.491 7.296,-1.348z"/>
   <path id="svg_4" fill="#3e3e3f" d="m121.78,70.209c-6.292,-1.317 -10.703,-11.633 -7.536,-16.682c1.923,-3.167 2.341,-5.519 -0.606,-8.33c-2.78,-2.665 -5.299,-5.122 -9.292,-1.85c-1.139,0.962 -2.874,1.139 -3.836,1.495c-1.192,0 -2.529,-0.272 -3.878,-0.732c0.658,1.265 1.056,2.749 1.171,4.453l0.01,0.334l-0.01,4.139c-0.094,1.244 -0.334,2.331 -0.69,3.282c5.759,4.494 9.668,11.299 10.358,19.033l0,3.857c-1.233,13.713 -12.762,24.521 -26.705,24.636c-9.156,-0.073 -17.236,-4.693 -22.096,-11.706c-0.063,0.073 -0.105,0.136 -0.136,0.199c-0.596,2.394 -2.373,8.916 -10.348,8.916c-0.178,0 -0.355,0 -0.544,-0.01l-0.502,0c-1.871,2.989 -2.143,5.362 0.669,8.038c2.843,2.738 5.299,5.195 9.292,1.85c1.129,-0.888 2.874,-1.139 3.836,-1.463c4.944,0 12.24,4.484 13.065,7.902c0.847,3.418 2.164,5.623 6.261,5.446l0.92,0c4.097,0.178 5.414,-2.028 6.261,-5.446c0.826,-3.418 8.184,-7.902 13.065,-7.902c0.962,0.324 2.697,0.575 3.836,1.463c3.993,3.345 6.439,0.888 9.292,-1.85c2.885,-2.738 2.529,-5.163 0.606,-8.257c-3.167,-5.122 1.244,-15.438 7.536,-16.755c3.742,-0.711 4.599,-2.634 4.777,-5.09l0,-3.805c-0.177,-2.531 -1.034,-4.381 -4.776,-5.165z"/>
  </g>
 </g>
</svg>