<svg width="128" height="128" xmlns="http://www.w3.org/2000/svg">

 <g>
  <title>background</title>
  <rect fill="none" id="canvas_background" height="130" width="130" y="-1" x="-1"/>
 </g>
 <g>
  <title>Layer 1</title>
  <g stroke="null" id="svg_1">
   <path stroke="null" id="svg_2" fill="#2E79BE" d="m53.277704,39.81779c-0.172588,0.806022 -0.548976,1.689158 -1.121821,2.539245c-0.172588,0.257046 -0.356192,0.497567 -0.548976,0.721564c-0.286422,0.345176 -0.596713,0.648122 -0.90884,0.90884c-1.162214,0.967594 -2.403378,1.320113 -3.200219,0.783989c-0.949233,-0.640778 -0.967594,-2.348296 -0.143211,-4.10906c0.051409,-0.047737 0.102818,-0.099146 0.150555,-0.150555c-0.022032,-0.014688 -0.040393,-0.025705 -0.058753,-0.036721c0.154227,-0.308455 0.334159,-0.622418 0.541632,-0.927201c0.334159,-0.497567 0.706876,-0.934545 1.092444,-1.301753c1.257688,-1.209951 2.682456,-1.700174 3.565592,-1.107133c0.686679,0.460846 0.886808,1.483521 0.631598,2.678784z"/>
   <path stroke="null" id="svg_3" fill="#2E79BE" d="m48.000923,37.491526c-0.161572,0.38006 -0.367208,0.763793 -0.620582,1.143854c-0.304783,0.447994 -0.64445,0.839071 -0.995134,1.17323c-0.011016,-0.005508 -0.029377,-0.016524 -0.040393,-0.023869c-0.016524,0.034885 -0.029377,0.06977 -0.051409,0.102818c-1.063068,0.965758 -2.236298,1.345818 -2.978058,0.844579c-0.385569,-0.258882 -0.591205,-0.706876 -0.637106,-1.27054c-0.005508,-0.034885 -0.005508,-0.075278 -0.005508,-0.115671c-0.023869,-0.488387 0.075278,-1.05756 0.288258,-1.648765c0.148719,-0.43147 0.3617,-0.862939 0.631598,-1.292573c0.005508,-0.011016 0.011016,-0.016524 0.016524,-0.029377c0.09731,-0.161572 0.201965,-0.315799 0.310291,-0.466354c1.017167,-1.362342 2.339116,-2.16102 3.310382,-2.039842c0.056917,0.005508 0.115671,0.016524 0.172588,0.034885c0.06977,0.016524 0.126687,0.040393 0.189112,0.062425c0.056917,0.023869 0.108326,0.051409 0.161572,0.080786c0.005508,0.005508 0.011016,0.005508 0.016524,0.011016c0.062425,0.040393 0.126687,0.086294 0.183604,0.137703c0.649959,0.611402 0.64445,1.920499 0.047737,3.295694z"/>
   <path stroke="null" id="svg_4" fill="#2E79BE" d="m60.423576,48.346201l-0.003672,0c-0.044065,0.080786 -0.095474,0.1579 -0.150555,0.238685c-1.096116,1.62306 -2.67144,2.476819 -3.521527,1.905811c-0.670155,-0.451666 -0.688515,-1.656109 -0.128523,-2.939502c0.143211,-0.330487 0.326815,-0.670155 0.548976,-1.000642c0.007344,-0.014688 0.01836,-0.025705 0.025705,-0.040393c0.433306,-0.640778 0.941889,-1.158542 1.450472,-1.520242c0.003672,0 0.003672,0 0.003672,-0.003672c0.776645,-0.552648 1.553291,-0.728908 2.067382,-0.381897c0.807858,0.545304 0.668319,2.183053 -0.291931,3.741852z"/>
   <path stroke="null" id="svg_5" fill="#2E79BE" d="m58.477372,42.22484c-0.17626,0.604057 -0.451666,1.243 -0.817038,1.891122c-0.143211,0.253374 -0.301111,0.508583 -0.471863,0.761957c-0.279078,0.411273 -0.574681,0.791334 -0.883136,1.136509c-0.242357,0.279078 -0.497567,0.53796 -0.750941,0.761957l0,0.003672c-1.268704,1.136509 -2.579638,1.612044 -3.363627,1.081428c-0.717892,-0.482879 -0.82071,-1.696502 -0.378224,-3.134122c0.117507,-0.392913 0.275406,-0.80235 0.475535,-1.217295c0.220325,-0.462682 0.490223,-0.934545 0.80235,-1.397227c0.418617,-0.622418 0.879464,-1.17323 1.34949,-1.630404l0,-0.003672c0.392913,-0.381897 0.795006,-0.706876 1.184246,-0.956577c0.960249,-0.618746 1.865418,-0.798678 2.462131,-0.396585c0.71422,0.479207 0.817038,1.674469 0.391077,3.099237z"/>
   <path stroke="null" id="svg_6" fill="#2E79BE" d="m47.620862,38.824492c-1.184246,1.953548 -3.0515,2.989075 -4.162305,2.317084c-0.504911,-0.310291 -0.763793,-0.919857 -0.782153,-1.678141c-0.005508,-0.034885 -0.005508,-0.075278 -0.005508,-0.115671c0,-0.873956 0.310291,-1.931515 0.919857,-2.943174c0.005508,-0.011016 0.011016,-0.016524 0.016524,-0.029377c0.09731,-0.161572 0.201965,-0.315799 0.310291,-0.466354c0.982282,-1.378867 2.304231,-2.177545 3.310382,-2.039842c0.056917,0.005508 0.115671,0.016524 0.172588,0.034885c0.06977,0.016524 0.126687,0.040393 0.189112,0.062425c0.056917,0.023869 0.108326,0.051409 0.161572,0.080786c0.005508,0.005508 0.011016,0.005508 0.016524,0.011016c0.062425,0.040393 0.126687,0.086294 0.183604,0.137703c0.916184,0.795006 0.789498,2.788946 -0.330487,4.628659z"/>
   <path stroke="null" id="svg_7" fill="#3E3E3F" d="m86.475161,34.820087c-0.771137,1.95722 -2.85688,2.985403 -5.102358,2.531901c-0.137703,-0.029377 -0.266226,-0.058753 -0.484715,-0.099146c0.08813,1.938859 -0.602221,3.449921 -2.313412,4.351417c-1.690994,0.89048 -3.303038,0.572845 -4.894885,-0.493895c0.049573,2.164692 -0.741761,3.738179 -2.678784,4.547873c-1.907647,0.800514 -3.58946,0.148719 -5.181308,-1.118149c-0.07895,0.315799 -0.119343,0.484715 -0.168916,0.662811c-0.414945,1.571651 -1.582667,2.6898 -2.976222,3.095565c0.958413,-2.214265 0.662811,-4.311024 -0.861103,-5.339207c-0.405765,-0.266226 -0.870283,-0.435142 -1.364178,-0.473699c0.593041,-2.243642 0.137703,-4.053978 -1.255852,-5.003212c-1.086936,-0.73258 -2.550261,-0.721564 -4.033782,0.029377c-0.227669,-0.850087 -0.712384,-1.551455 -1.413752,-2.017809c-0.89966,-0.613238 -2.067382,-0.721564 -3.253465,-0.365372c-0.128523,-0.97861 -0.534288,-1.810336 -1.215459,-2.403378c-0.07895,-0.06977 -0.1579,-0.128523 -0.236849,-0.187276l-0.335995,-0.227669c-0.119343,-0.058753 -0.236849,-0.119343 -0.365372,-0.178096l-0.099146,-0.029377c-0.108326,-0.049573 -0.227669,-0.07895 -0.286422,-0.099146c-0.178096,-0.049573 -0.347012,-0.07895 -0.455338,-0.08813c-1.740567,-0.247866 -3.767556,0.861103 -5.181308,2.827503c-0.137703,0.198292 -0.266226,0.385569 -0.385569,0.593041l-0.07895,0.119343c-0.622418,1.068576 -1.007986,2.195905 -1.118149,3.262645l-0.870283,-0.800514l-2.421738,-2.254658l-5.3796,-5.052785l-0.385569,-0.356192c-0.335995,-0.414945 -0.504911,-0.940053 -0.473699,-1.483521l0.137703,-0.593041l0,-0.011016c0,0 2.917469,-12.685207 2.926649,-12.7256c0.178096,-0.750941 0.277242,-1.571651 0.919857,-2.076562c0.683007,-0.534288 1.601028,-0.286422 2.362985,-0.168916c0.721564,0.099146 1.433948,0.108326 2.155512,0.029377c1.641421,-0.178096 3.104745,-0.780317 4.270631,-1.948039c0.00918,-0.00918 0.029377,-0.020196 0.040393,-0.029377c0.435142,-0.464518 0.879464,-0.919857 1.325622,-1.375195c0.791334,-0.81153 1.729551,-1.522078 2.660423,-2.184889c0.73258,-0.523272 1.086936,-0.464518 1.948039,0.00918l1.997613,1.285229l-0.080786,0.071606l-5.961625,5.557696c-1.503718,1.276048 -1.760763,2.570457 -1.700174,3.440741c0.06977,1.107133 0.651795,1.968236 1.176902,2.511704c0.356192,0.365372 0.683007,0.602221 0.81153,0.683007c0.613238,0.435142 1.384375,0.651795 2.293215,0.651795c1.760763,0 3.59864,-0.840907 3.796933,-0.940053l0.257046,-0.119343l0.198292,-0.198292c0.514091,-0.493895 2.550261,-2.175709 3.717983,-3.113925c1.019003,-0.81153 2.184889,-1.215459 3.58946,-1.215459c2.412558,0 5.526483,1.265032 8.770768,3.539887c3.934636,2.76875 8.08776,5.30983 12.112362,7.751765c1.681814,1.037363 3.420544,2.096759 5.131735,3.163499c0.798678,1.187919 0.967594,2.640227 0.413109,4.053978z"/>
   <path stroke="null" id="svg_8" fill="#2E79BE" d="m95.879363,25.845518c-2.724685,0.817038 -6.461028,1.391719 -7.931697,4.162305c-6.064443,-3.84467 -12.299638,-7.380885 -18.180478,-11.511977c-2.362985,-1.656109 -5.684383,-3.517855 -8.913979,-3.793261c-1.913155,-0.16708 -3.793261,0.223997 -5.425501,1.53493c0,0 -3.097401,2.489672 -3.84467,3.229596c0,0 -3.034976,1.432112 -4.459744,0.413109c0,0 -2.78711,-1.793812 -0.108326,-4.035618l6.369226,-5.937757l0.69586,-0.649959c0,0 0.558156,-0.690351 2.3281,-0.736252l8.214447,-0.235013c0,0 1.092444,-0.367208 3.798769,0.275406l11.069491,4.200862c1.373359,0.523272 3.493986,0.269898 4.736986,-0.402093c1.758927,-0.949233 3.057008,-2.535573 4.546037,-3.890571c0.251538,-0.229505 0.515928,-0.44983 0.783989,-0.659139c0.253374,-0.198292 0.473699,-0.481043 0.818874,-0.486551c1.026347,-0.022032 1.342146,1.088772 1.674469,1.865418c0.258882,0.591205 0.517764,1.184246 0.769301,1.775452c1.241164,2.886256 2.460295,5.787201 3.817129,8.611032c0.655467,1.362342 1.281557,2.765078 1.885614,4.138436c0.782153,1.775452 -1.332966,1.746075 -2.643899,2.131644z"/>
   <path stroke="null" id="svg_9" fill="#2E79BE" d="m29.660709,28.098341c-0.198292,0.81153 -1.017167,1.307261 -1.828697,1.108969l-1.914991,-0.470026c-0.81153,-0.198292 -1.307261,-1.017167 -1.108969,-1.828697l3.512346,-14.32112c0.198292,-0.81153 1.017167,-1.307261 1.828697,-1.108969l1.914991,0.470026c0.81153,0.198292 1.307261,1.017167 1.108969,1.828697l-3.512346,14.32112z"/>
   <rect stroke="null" id="svg_10" y="88.500417" x="20.025166" width="12.732944" height="33.549977" fill="#3E3E3F"/>
   <rect stroke="null" id="svg_11" y="68.788681" x="39.808508" width="12.732944" height="53.261713" fill="#3E3E3F"/>
   <rect stroke="null" id="svg_12" y="63.01984" x="80.32626" width="12.732944" height="59.032389" fill="#3E3E3F"/>
   <rect stroke="null" id="svg_13" y="77.766921" x="59.843387" width="12.732944" height="44.285308" fill="#3E3E3F"/>
   <rect stroke="null" id="svg_14" y="37.673727" x="100.418056" width="12.732944" height="84.376667" fill="#3E3E3F"/>
   <path stroke="null" id="svg_15" fill="#2E79BE" d="m92.36151,46.772334c0.09364,-0.28275 0.13219,-0.50858 0.16891,-0.79133c0,-0.09364 0.01836,-0.15056 0,-0.24419c0.01836,-0.41495 0,-0.82989 -0.07527,-1.20628c-0.01836,-0.22584 -0.09364,-0.43331 -0.15056,-0.62242c-0.09364,-0.26439 -0.18911,-0.50858 -0.31947,-0.73442c-0.11383,-0.20747 -0.28275,-0.4333 -0.43331,-0.65914c-0.37638,-0.4333 -0.80969,-0.80969 -1.32011,-1.09244c-0.05692,-0.03856 -0.09364,-0.07528 -0.15055,-0.09364c-0.20748,-0.09364 -0.39659,-0.18911 -0.58387,-0.26439c-0.09363,-0.01836 -0.20747,-0.09364 -0.33966,-0.09364c-0.15056,-0.05691 -0.33967,-0.09363 -0.52695,-0.11383c-0.22583,-0.03856 -0.47186,-0.07711 -0.69769,-0.07711c-0.28275,0 -0.52695,0.03672 -0.79134,0.07527c-0.20747,0.01836 -0.39658,0.09364 -0.62241,0.11384c-0.54714,0.18911 -1.07409,0.47186 -1.50739,0.88497c-1.07409,0.88497 -1.69651,2.16836 -1.77178,3.505l0,0.09364c0,0.09364 0,0.20747 0.03855,0.33967l0,0.09363c0,0.05692 0,0.1322 0.03672,0.15056l-0.03672,0l-15.68162,13.13687c-1.14936,-0.39658 -2.3942,-0.31947 -3.5252,0.18912c-0.28275,0.15055 -0.47186,0.28275 -0.67934,0.4333c-0.03672,0.03856 -0.07527,0.05692 -0.16891,0.09364l-19.0728,-6.95309c-0.20747,-1.07408 -0.71605,-2.01597 -1.52575,-2.67695c-1.45047,-1.131 -3.46828,-1.37519 -5.14458,-0.62241c-1.131,0.52694 -1.99761,1.47067 -2.374,2.63839c-0.37639,0.9988 -0.28275,2.16836 0.11383,3.16717c0,0 -12.87248,15.83218 -12.98632,15.83218c-1.58266,-0.09364 -3.14697,0.47186 -4.0907,1.63958c-1.62122,2.01598 -1.26319,4.97568 0.75462,6.53998c0.94189,0.79134 2.16836,1.14936 3.393,1.01717c1.2632,-0.1322 2.33728,-0.75461 3.11025,-1.6965c0.79134,-0.98045 1.13101,-2.20509 1.01717,-3.46828c-0.03672,-0.28275 -0.07528,-0.50859 -0.18911,-0.79134c-0.03856,-0.05692 -0.03856,-0.09364 -0.07528,-0.15055c0,0 12.94776,-15.86891 13.00468,-15.86891c0.33967,0.03856 0.65914,0.03856 1.03736,0c0.84825,-0.05691 1.60287,-0.4333 2.262,-0.94188c0,0 19.12972,6.99164 19.16827,7.04856c0.03856,0.13219 0.05692,0.26439 0.15056,0.41494c0.47186,1.35684 1.43211,2.48784 2.75222,2.9597c0.43331,0.13219 0.8097,0.18911 1.28156,0.24419l0.22583,0c0.15056,0 0.31947,0 0.43331,-0.01836c1.01717,-0.03855 1.96089,-0.45166 2.73203,-1.07408c0.98044,-0.8097 1.52575,-1.96089 1.63958,-3.20389c0.03856,-0.26439 0.03856,-0.50859 0,-0.79134c-0.05691,-0.05691 -0.05691,-0.13219 -0.05691,-0.18911c0,0 15.66142,-13.11851 15.69998,-13.11851c0.16892,0.01836 0.32131,0.05692 0.47186,0.09364c0.45167,0.09364 0.94189,0.11383 1.41376,0.09364l3.99155,-3.24062zm-70.58292,32.00403c-1.65795,0 -2.92115,-1.32011 -2.92115,-2.9395c0,-1.60286 1.2632,-2.92114 2.92115,-2.92114c1.60286,0 2.90278,1.32011 2.90278,2.92114c0,1.61939 -1.29992,2.9395 -2.90278,2.9395zm17.79123,-21.99577c-1.62122,0 -2.9395,-1.33847 -2.9395,-2.9395c0,-1.60286 1.32011,-2.92114 2.9395,-2.92114c1.60287,0 2.92114,1.32011 2.92114,2.92114c0.00184,1.60286 -1.31827,2.9395 -2.92114,2.9395zm26.51978,9.72551c-1.63959,0 -2.92114,-1.33847 -2.92114,-2.9395c0,-1.60286 1.28155,-2.92114 2.92114,-2.92114c1.60286,0 2.92114,1.32011 2.92114,2.92114c0,1.60103 -1.32011,2.9395 -2.92114,2.9395zm22.4658,-18.22454c-0.15056,0.05692 -0.30112,0.05692 -0.47187,0.05692c-0.05691,0.03855 -0.11383,0.03855 -0.18911,0.03855c-1.63958,0 -2.92114,-1.32011 -2.92114,-2.92114c0,-1.11264 0.60222,-2.09125 1.54595,-2.56311c0.13219,-0.09364 0.24419,-0.11384 0.41494,-0.18911c0.15056,-0.05692 0.30111,-0.11384 0.49022,-0.11384c0.16892,-0.07528 0.32131,-0.07528 0.47187,-0.07528c0.07527,-0.01836 0.13219,-0.01836 0.18911,-0.01836c1.63958,0 2.9395,1.32012 2.9395,2.92114c-0.00184,1.45048 -1.05572,2.67512 -2.46947,2.86423z"/>
  </g>
  <ellipse ry="4.692835" rx="4.692835" id="svg_16" cy="46.130752" cx="88.125132" fill-opacity="null" stroke-opacity="null" stroke-width="null" stroke="null" fill="#2E79BE"/>
  <ellipse ry="3.42359" rx="3.42359" id="svg_17" cy="45.994454" cx="88.345523" stroke-width="null" stroke="#2E79BE" fill="#ffffff"/>
 </g>
</svg>