<svg width="128" height="128" xmlns="http://www.w3.org/2000/svg">

 <g>
  <title>background</title>
  <rect fill="none" id="canvas_background" height="402" width="582" y="-1" x="-1"/>
 </g>
 <g>
  <title>Layer 1</title>
  <g stroke="null" id="svg_1">
   <path stroke="null" id="svg_2" fill="#3e3e3f" d="m116.097,7.006l-3.461,0l-1.918,0l-98.257,0c-6.984,0 -9.903,2.898 -9.903,9.84c-0.021,24.372 -0.021,48.743 0,73.094c0,6.88 2.814,9.736 9.632,9.736c12.988,0.021 25.998,0.021 38.986,0c-0.042,0.73 -0.104,1.459 -0.146,2.189c-0.146,2.147 -0.229,4.315 -0.521,6.442c-0.083,0.625 -0.229,1.209 -0.438,1.772c-0.625,1.897 -1.876,3.44 -3.669,4.566c-0.667,0.417 -1.334,0.813 -2.001,1.23c-1.167,0.709 -2.356,1.397 -3.502,2.127c-0.521,0.313 -1.022,0.792 -1.272,1.313c-0.396,0.855 -0.021,1.48 0.938,1.647c0.313,0.042 0.626,0 0.938,0c15.136,0 30.272,0.021 45.387,0c0.813,0 1.876,0.292 2.106,-0.876c0.208,-1.042 -0.542,-1.626 -1.355,-2.106c-1.23,-0.73 -2.46,-1.48 -3.69,-2.21c-0.459,-0.292 -0.917,-0.563 -1.376,-0.834c-1.897,-1.126 -3.211,-2.606 -3.94,-4.461c-0.375,-0.897 -0.584,-1.897 -0.667,-2.981c-0.167,-2.564 -0.396,-5.149 -0.605,-7.818l38.736,0c6.421,0 9.361,-2.981 9.361,-9.465l0,-73.949c-0.023,-6.171 -3.15,-9.256 -9.363,-9.256zm-47.513,85.686c-0.959,1.689 -2.752,2.835 -4.712,2.752c-1.939,-0.063 -3.586,-1.167 -4.462,-2.752c-0.438,-0.792 -0.688,-1.73 -0.688,-2.731c0.042,-2.94 2.398,-5.337 5.275,-5.358c2.981,0 5.316,2.502 5.254,5.629c-0.021,0.875 -0.271,1.73 -0.667,2.46zm46.783,-12.634c-34.149,-0.063 -68.299,-0.042 -102.448,-0.042c-3.544,0 -3.648,-0.125 -3.648,-3.711l0,-58.312c0,-4.149 0.042,-4.17 4.315,-4.17c12.334,-0.02 80.242,-0.021 97.132,-0.021l1.918,0l2.293,0c3.607,0 3.774,0.146 3.774,3.628c0.021,19.722 -0.021,39.424 0.062,59.125c0.021,2.544 -0.708,3.503 -3.398,3.503z"/>
   <g stroke="null" id="svg_3">
    <g stroke="null" id="svg_4">
     <path stroke="null" id="svg_5" fill="#3076BC" d="m57.719,64.538c-0.001,-0.107 0.01,-0.212 0.033,-0.315c0.085,-0.378 0.265,-0.749 0.404,-1.112c2.769,-7.252 5.544,-14.501 8.317,-21.751c1.027,-2.685 2.042,-5.375 3.085,-8.054c0.421,-1.081 1.502,-1.708 2.52,-1.534c1.105,0.189 1.938,1.055 1.989,2.174c0.02,0.425 -0.087,0.883 -0.241,1.286c-2.066,5.437 -4.149,10.867 -6.23,16.298c-1.748,4.564 -3.505,9.125 -5.241,13.694c-0.36,0.947 -1.02,1.498 -1.995,1.625c-0.543,0.071 -1.079,-0.056 -1.525,-0.37c-0.565,-0.397 -1.112,-1.197 -1.116,-1.941z"/>
     <path stroke="null" id="svg_6" fill="#3076BC" d="m56.2,65.06c-0.888,1.208 -2.518,1.296 -3.646,0.167c-2.54,-2.54 -5.066,-5.088 -7.599,-7.635c-2.082,-2.089 -4.163,-4.178 -6.23,-6.274c-0.335,-0.335 -0.619,-0.728 -0.932,-1.135c-0.007,-0.007 -0.015,-0.015 -0.022,-0.022c-0.029,-0.029 -0.051,-0.065 -0.073,-0.095c-0.619,-0.873 -0.044,-1.587 0.058,-1.703c0.007,-0.007 0.015,-0.015 0.015,-0.015l0.91,-0.953c0.59,-0.611 1.186,-1.245 1.798,-1.856c4.032,-4.061 8.064,-8.115 12.104,-12.162c0.844,-0.844 1.892,-1.012 2.853,-0.488c0.917,0.495 1.448,1.565 1.135,2.591c-0.16,0.517 -0.517,1.026 -0.903,1.427c-3.545,3.603 -7.118,7.184 -10.685,10.765c-0.524,0.531 -1.084,1.034 -1.652,1.587c0.226,0.24 0.386,0.422 0.553,0.59c3.967,3.996 7.941,7.984 11.907,11.98c1.005,1.018 1.151,2.219 0.409,3.231z"/>
     <path stroke="null" id="svg_7" fill="#3076BC" d="m75.852,64.915c0.888,1.208 2.518,1.296 3.646,0.167c2.54,-2.54 5.066,-5.088 7.599,-7.635c2.082,-2.089 4.163,-4.178 6.23,-6.274c0.335,-0.335 0.619,-0.728 0.932,-1.135c0.007,-0.007 0.015,-0.015 0.022,-0.022c0.029,-0.029 0.051,-0.065 0.073,-0.095c0.619,-0.873 0.044,-1.587 -0.058,-1.703c-0.007,-0.007 -0.015,-0.015 -0.015,-0.015l-0.91,-0.953c-0.59,-0.611 -1.186,-1.245 -1.798,-1.856c-4.032,-4.061 -8.064,-8.115 -12.104,-12.162c-0.844,-0.844 -1.892,-1.012 -2.853,-0.488c-0.917,0.495 -1.448,1.565 -1.135,2.591c0.16,0.517 0.517,1.026 0.903,1.427c3.545,3.603 7.118,7.184 10.685,10.765c0.524,0.531 1.084,1.034 1.652,1.587c-0.226,0.24 -0.386,0.422 -0.553,0.59c-3.967,3.996 -7.941,7.984 -11.907,11.98c-1.006,1.018 -1.152,2.219 -0.409,3.231z"/>
    </g>
   </g>
   <path stroke="null" id="svg_8" fill="#3C4252" d="m29.027,37.325c0.152,-0.913 0.321,-1.857 0.458,-2.807c0.022,-0.155 -0.05,-0.378 -0.159,-0.49c-0.631,-0.644 -1.295,-1.256 -1.926,-1.9c-0.138,-0.141 -0.297,-0.419 -0.243,-0.55c0.069,-0.169 0.331,-0.326 0.531,-0.361c0.872,-0.154 1.754,-0.246 2.627,-0.398c0.181,-0.032 0.405,-0.183 0.49,-0.342c0.426,-0.793 0.799,-1.613 1.221,-2.408c0.091,-0.172 0.307,-0.386 0.465,-0.385c0.161,0 0.38,0.21 0.471,0.382c0.407,0.769 0.785,1.555 1.158,2.341c0.125,0.263 0.28,0.401 0.591,0.435c0.865,0.095 1.728,0.22 2.585,0.372c0.202,0.036 0.465,0.188 0.536,0.356c0.055,0.13 -0.104,0.409 -0.242,0.551c-0.609,0.625 -1.238,1.23 -1.873,1.828c-0.199,0.188 -0.285,0.358 -0.225,0.649c0.164,0.794 0.283,1.598 0.418,2.398c0.022,0.131 0.046,0.263 0.049,0.395c0.011,0.467 -0.262,0.651 -0.687,0.436c-0.83,-0.42 -1.642,-0.876 -2.477,-1.284c-0.164,-0.08 -0.434,-0.079 -0.598,0.001c-0.836,0.407 -1.649,0.861 -2.478,1.281c-0.448,0.227 -0.718,0.035 -0.692,-0.5z"/>
   <path stroke="null" id="svg_9" fill="#3C4252" d="m41.698,31.443c0.095,-0.864 0.199,-1.757 0.284,-2.655c0.014,-0.147 -0.031,-0.357 -0.099,-0.463c-0.391,-0.609 -0.804,-1.188 -1.195,-1.797c-0.086,-0.133 -0.184,-0.396 -0.151,-0.521c0.043,-0.159 0.205,-0.308 0.33,-0.342c0.541,-0.145 1.089,-0.233 1.63,-0.376c0.113,-0.03 0.251,-0.173 0.304,-0.324c0.264,-0.75 0.496,-1.526 0.758,-2.278c0.057,-0.163 0.191,-0.365 0.289,-0.364c0.1,0 0.236,0.198 0.293,0.361c0.253,0.728 0.487,1.47 0.719,2.215c0.077,0.249 0.174,0.379 0.367,0.412c0.537,0.09 1.072,0.208 1.604,0.352c0.126,0.034 0.289,0.178 0.333,0.337c0.034,0.123 -0.065,0.387 -0.15,0.521c-0.378,0.591 -0.768,1.163 -1.162,1.729c-0.124,0.178 -0.177,0.338 -0.14,0.614c0.102,0.751 0.176,1.512 0.26,2.269c0.014,0.124 0.028,0.249 0.03,0.374c0.007,0.442 -0.163,0.616 -0.426,0.412c-0.515,-0.397 -1.019,-0.828 -1.537,-1.214c-0.102,-0.076 -0.269,-0.075 -0.371,0.001c-0.519,0.385 -1.023,0.814 -1.538,1.212c-0.281,0.213 -0.449,0.031 -0.432,-0.475z"/>
  </g>
 </g>
</svg>