<svg width="128" height="128" xmlns="http://www.w3.org/2000/svg">

 <g>
  <title>background</title>
  <rect fill="none" id="canvas_background" height="130" width="130" y="-1" x="-1"/>
 </g>
 <g>
  <title>Layer 1</title>
  <g stroke="null" id="svg_1">
   <polygon stroke="null" id="svg_2" points="54.201473236083984,31.30238914489746 54.22862243652344,31.30238914489746 54.22862243652344,31.23111915588379 61.12651062011719,31.23111915588379 61.12651062011719,42.29489517211914 61.11124038696289,42.29489517211914 61.11124038696289,42.36616516113281 54.201473236083984,42.36616516113281 " fill="#1D75B9"/>
   <polygon stroke="null" id="svg_3" points="54.201473236083984,48.09489059448242 54.21504592895508,48.09489059448242 54.21504592895508,48.08131790161133 61.12651062011719,48.08131790161133 61.12651062011719,59.1739387512207 54.21504592895508,59.1739387512207 54.21504592895508,59.158668518066406 54.201473236083984,59.158668518066406 " fill="#1D75B9"/>
   <rect stroke="null" id="svg_4" y="64.887394" x="54.201472" width="6.911465" height="11.063775" fill="#1D75B9"/>
   <polygon stroke="null" id="svg_5" points="40.48544692993164,31.188695907592773 47.32564163208008,31.188695907592773 47.32564163208008,31.30238914489746 47.39691162109375,31.30238914489746 47.39691162109375,42.36616516113281 40.499019622802734,42.36616516113281 40.499019622802734,42.28131866455078 40.48544692993164,42.28131866455078 " fill="#1D75B9"/>
   <path stroke="null" id="svg_6" fill="#1D75B9" d="m40.49902,48.110164l0,-0.013575l6.89789,0l0,11.063775l-0.028847,0l0,0.07127c-2.175423,0 -4.308424,0.013575 -6.456697,-0.028847c-0.028847,0 -0.084845,-0.013575 -0.127267,-0.042422l-0.285079,0l0,-0.285079c-0.057695,-0.07127 -0.084845,-0.142539 -0.084845,-0.198537c-0.028847,-3.499004 -0.028847,-6.99631 -0.028847,-10.566584l0.113692,0z"/>
   <rect stroke="null" id="svg_7" y="64.887394" x="40.49902" width="6.89789" height="11.063775" fill="#1D75B9"/>
   <polygon stroke="null" id="svg_8" points="91.08354949951172,48.57850646972656 91.11070251464844,48.57850646972656 91.11070251464844,48.508934020996094 98.00859069824219,48.508934020996094 98.00859069824219,59.57270812988281 97.99331665039062,59.57270812988281 97.99331665039062,59.64228439331055 91.08354949951172,59.64228439331055 " fill="#1D75B9"/>
   <polygon stroke="null" id="svg_9" points="91.08354949951172,66.05316162109375 91.09712219238281,66.05316162109375 91.09712219238281,66.03789138793945 98.00859069824219,66.03789138793945 98.00859069824219,77.13050842285156 91.09712219238281,77.13050842285156 91.09712219238281,77.11693572998047 91.08354949951172,77.11693572998047 " fill="#1D75B9"/>
   <rect stroke="null" id="svg_10" y="83.526121" x="91.083549" width="6.911465" height="11.063775" fill="#1D75B9"/>
   <polygon stroke="null" id="svg_11" points="77.36752319335938,48.46481704711914 84.20771789550781,48.46481704711914 84.20771789550781,48.57850646972656 84.27898406982422,48.57850646972656 84.27898406982422,59.64228439331055 77.38109588623047,59.64228439331055 77.38109588623047,59.557437896728516 77.36752319335938,59.557437896728516 " fill="#1D75B9"/>
   <path stroke="null" id="svg_12" fill="#1D75B9" d="m77.381098,66.066738l0,-0.013575l6.89789,0l0,11.063775l-0.028847,0l0,0.07127c-2.175423,0 -4.308424,0.013575 -6.456697,-0.028847c-0.028847,0 -0.084845,-0.013575 -0.127267,-0.042422l-0.285079,0l0,-0.285079c-0.057695,-0.07127 -0.084845,-0.142539 -0.084845,-0.198537c-0.028847,-3.499004 -0.028847,-6.99631 -0.028847,-10.566584l0.113692,0z"/>
   <rect stroke="null" id="svg_13" y="83.526121" x="77.381098" width="6.89789" height="11.063775" fill="#1D75B9"/>
   <polygon stroke="null" id="svg_14" points="26.771114349365234,31.202272415161133 33.66730880737305,31.202272415161133 33.66730880737305,31.30238914489746 33.70973205566406,31.30238914489746 33.70973205566406,42.36616516113281 26.813539505004883,42.36616516113281 26.813539505004883,42.29489517211914 26.771114349365234,42.29489517211914 " fill="#1D75B9"/>
   <path stroke="null" id="svg_15" fill="#1D75B9" d="m26.771116,48.081316l6.911465,0l0,0.013575l0.028847,0l0,0.441193c0.013575,0.213809 0.028847,0.425921 0.028847,0.639731c0,2.98654 -0.013575,5.986656 0.013575,8.986772c0,0.213809 0,0.383499 -0.042422,0.539614l0,0.454769l-0.327501,0c-0.156115,0.07127 -0.369924,0.100117 -0.655003,0.100117c-1.961614,-0.057695 -3.924925,-0.028847 -5.957809,-0.028847l0,-11.146923z"/>
   <rect stroke="null" id="svg_16" y="64.887394" x="26.813538" width="6.896193" height="11.063775" fill="#1D75B9"/>
   <rect stroke="null" id="svg_17" y="83.02384" x="27.449875" width="13.580275" height="19.865585" fill="#1D75B9"/>
   <rect stroke="null" id="svg_18" y="83.037415" x="46.865782" width="13.580275" height="19.838434" fill="#1D75B9"/>
   <path stroke="null" id="svg_19" fill="#414143" d="m114.841818,110.559403c-0.016969,-1.486483 -0.578642,-2.05155 -2.037974,-2.075306c-0.507372,-0.006788 -1.011351,0 -1.705382,0l0,-65.870186c0,-5.662549 -1.902223,-8.017843 -7.415444,-9.144583c-0.738151,-5.535281 -4.033527,-7.294964 -8.438674,-7.415444l0,0l-0.055998,0c-0.212112,-0.005091 -0.425921,-0.006788 -0.643124,-0.005091c-0.100117,0.001697 -0.271504,0.003394 -0.490404,0.005091l-5.083906,0l0,-2.604738c0,-2.771034 0.013575,-5.540372 -0.003394,-8.308013c-0.013575,-2.317963 -1.579812,-4.013164 -3.675481,-4.019951c-2.107547,-0.010181 -3.702631,1.668051 -3.7196,3.972438c-0.023757,3.198653 -0.006788,6.399002 -0.006788,9.594261l0,1.364306l-8.912108,0l0,-2.261965c0,-2.087185 -1.691807,-3.777295 -3.778992,-3.777295l-1.876769,0l0,0.010181c0,-2.350204 -1.905616,-4.254123 -4.254123,-4.254123l-36.403552,0c-2.350204,0 -4.254123,1.905616 -4.254123,4.254123l0,-0.008484l-2.431655,0c-1.888647,0 -3.412462,1.54248 -3.388705,3.431128l0.122177,9.90649c0,0.183265 -0.115389,0.358045 -1.167466,1.155588c-0.848449,0.644821 -1.81059,1.376184 -2.547044,2.524984c-1.203101,1.871678 -1.053774,4.237154 -0.933294,6.139377l0.005091,0.072967c0.025453,0.407256 0.050907,0.790754 0.050907,1.114862l0.011878,63.710035l-1.657869,0l0,7.829487l1.659566,0l60.869428,0l6.631477,0l0,0.030544c8.774659,-0.013575 17.547622,-0.02715 26.322282,-0.040726c2.379051,-0.003394 4.758102,0.010181 7.137153,-0.003394c1.469514,-0.006788 2.05155,-0.592217 2.068519,-2.048156c0.013575,-1.092802 0.013575,-2.185605 0.003394,-3.278407zm-47.847432,-2.489349l-49.503605,0l-0.011878,-63.711732c0,-0.461556 -0.030544,-0.974019 -0.066179,-1.549268c-0.09842,-1.544177 -0.081451,-2.457108 0.045816,-2.706552c0.195143,-0.305442 0.70591,-0.692334 1.201404,-1.069046c1.276067,-0.968929 3.412462,-2.589466 3.412462,-5.681214c0,-0.005091 -0.013575,-1.069046 -0.030544,-2.52159l-0.062785,-5.13142l44.986462,0l0,11.330188l0.028847,2.124516l0,68.916118zm36.62924,-63.290901l-0.003394,0l0,7.425626l0.003394,0l0,3.804445l-0.003394,0l0,44.928768l-22.349843,0l-8.594788,-0.015272l-0.020363,-59.953103l22.587409,0l8.380979,0l0,3.809536z"/>
  </g>
 </g>
</svg>