<svg width="128" height="128" xmlns="http://www.w3.org/2000/svg">

 <g>
  <title>background</title>
  <rect fill="none" id="canvas_background" height="130" width="130" y="-1" x="-1"/>
 </g>
 <g>
  <title>Layer 1</title>
  <g stroke="null" id="svg_1">
   <path stroke="null" id="svg_2" fill="#414143" d="m64.000002,11.668002c-28.349574,0 -51.331996,22.982422 -51.331996,51.331996s22.982422,51.331996 51.331996,51.331996s51.331996,-22.982422 51.331996,-51.331996s-22.982422,-51.331996 -51.331996,-51.331996zm29.817513,76.84563c-7.103777,8.402969 -16.576572,12.344778 -23.945757,13.406413l0.001638,-16.488102c0,-3.324161 -1.497429,-4.806845 -4.85108,-4.81176l-1.533472,-0.001638c-0.486583,0 -0.971527,0 -1.458109,0.004915c-2.793344,0.024575 -4.393987,1.64324 -4.397264,4.434946c-0.004915,5.932375 -0.001638,6.305913 -0.001638,12.238287l0,4.644651c-7.326589,-1.136997 -13.719333,-4.074514 -19.469853,-8.943616c-8.402969,-7.111968 -12.34314,-16.584763 -13.401498,-23.949034l11.409295,0.001638l5.190213,-0.001638c3.157052,0 4.695439,-1.546579 4.700354,-4.726567l0.001638,-0.727416c0,-0.750353 0.001638,-1.500706 0,-2.251058c-0.013107,-2.917857 -1.631772,-4.52833 -4.556182,-4.52833c-4.318624,-0.001638 -3.076774,-0.004915 -7.395399,-0.004915l-9.36958,0c1.128806,-7.306929 4.067961,-13.699673 8.943616,-19.468215c7.115245,-8.422628 16.586401,-12.359523 23.945757,-13.408051l0,4.433307c0,5.909438 0,6.261678 0.001638,12.171116c0,3.165244 1.549855,4.703631 4.731482,4.703631l1.749731,0.001638c0.452178,0 0.901079,-0.001638 1.34998,-0.004915c2.796621,-0.024575 4.400541,-1.639963 4.403817,-4.430031c0.004915,-5.88814 0.001638,-6.219081 0.001638,-12.107221l0,-4.780632c7.275801,1.120614 13.639055,4.035194 19.379745,8.868253c8.46031,7.118522 12.425056,16.62736 13.488329,24.02112l-10.750688,0c-3.840234,0 -2.121631,0 -5.961864,0.001638c-2.988305,0 -4.574203,1.592452 -4.584033,4.603693l0,0.237557c-0.001638,0.955143 -0.006553,1.911925 0,2.867069c0.018022,2.917857 1.635048,4.526692 4.549628,4.52833l16.768256,0c-1.132083,7.313482 -4.069599,13.706226 -8.940339,19.464938z"/>
   <path stroke="null" id="svg_3" fill="#1D75B9" d="m71.778769,62.261114c-0.032766,4.564373 -3.828765,8.343989 -8.389862,8.353819c-4.520138,0.00983 -8.394777,-3.879553 -8.350542,-8.384947c0.044235,-4.621715 3.930341,-8.432458 8.522566,-8.355457c4.477542,0.075363 8.250604,3.923788 8.217838,8.386585z"/>
  </g>
 </g>
</svg>