<svg width="128" height="128" xmlns="http://www.w3.org/2000/svg">

 <g>
  <title>background</title>
  <rect fill="none" id="canvas_background" height="402" width="582" y="-1" x="-1"/>
 </g>
 <g>
  <title>Layer 1</title>
  <g id="svg_1">
   <circle id="svg_2" r="11.834" fill="#2E79BE" cy="14.221" cx="64"/>
   <circle id="svg_3" r="11.834" fill="#2E79BE" cy="64" cx="113.779"/>
   <circle id="svg_4" r="11.834" fill="#2E79BE" cy="113.779" cx="64"/>
   <circle id="svg_5" r="11.834" fill="#2E79BE" cy="64" cx="14.221"/>
   <path id="svg_6" fill="#3e3e3f" d="m15.415,45.596c4.366,-11.338 12.594,-20.69 23.238,-26.488l-2.511,-0.024c-0.3,-0.004 -0.58,-0.123 -0.79,-0.336c-0.21,-0.214 -0.323,-0.495 -0.32,-0.795c0.006,-0.593 0.462,-1.079 1.038,-1.108c0.033,-0.002 0.067,-0.002 0.094,-0.001l6.01,0.059c0.563,0.005 1.086,0.311 1.365,0.803c0.278,0.49 0.273,1.099 -0.014,1.585l-3.057,5.178c-0.192,0.325 -0.532,0.53 -0.909,0.549c-0.221,0.011 -0.438,-0.043 -0.626,-0.154c-0.258,-0.153 -0.441,-0.396 -0.515,-0.687c-0.074,-0.289 -0.032,-0.591 0.12,-0.847l1.173,-1.987c-10.076,5.526 -17.883,14.375 -22.024,25.128c-0.178,0.463 -0.609,0.755 -1.075,0.779c-0.165,0.008 -0.334,-0.016 -0.499,-0.079c-0.627,-0.243 -0.94,-0.948 -0.698,-1.575z"/>
   <path id="svg_7" fill="#3e3e3f" d="m85.454,16.53c11.049,5.052 19.88,13.837 25.015,24.817l0.178,-2.505c0.022,-0.299 0.158,-0.572 0.384,-0.768c0.226,-0.196 0.514,-0.292 0.813,-0.271c0.591,0.042 1.048,0.527 1.042,1.104c0,0.033 -0.002,0.067 -0.005,0.094l-0.427,5.995c-0.039,0.561 -0.377,1.065 -0.885,1.313c-0.506,0.248 -1.113,0.206 -1.581,-0.111l-4.981,-3.368c-0.313,-0.211 -0.497,-0.563 -0.493,-0.94c0.002,-0.221 0.069,-0.434 0.192,-0.615c0.169,-0.249 0.422,-0.416 0.717,-0.472c0.293,-0.056 0.591,0.004 0.838,0.171l1.912,1.293c-4.899,-10.395 -13.253,-18.729 -23.732,-23.521c-0.452,-0.206 -0.717,-0.655 -0.712,-1.121c0.002,-0.165 0.037,-0.333 0.11,-0.493c0.281,-0.613 1.004,-0.882 1.615,-0.602z"/>
   <path id="svg_8" fill="#3e3e3f" d="m111.426,85.675c-5.127,11.014 -13.973,19.785 -24.987,24.845l2.503,0.195c0.299,0.024 0.57,0.162 0.765,0.389c0.195,0.227 0.289,0.516 0.265,0.815c-0.046,0.591 -0.534,1.045 -1.111,1.035c-0.033,-0.001 -0.067,-0.003 -0.094,-0.005l-5.992,-0.468c-0.561,-0.043 -1.062,-0.384 -1.307,-0.894c-0.244,-0.508 -0.198,-1.115 0.121,-1.58l3.402,-4.958c0.214,-0.311 0.567,-0.493 0.944,-0.486c0.221,0.004 0.434,0.072 0.614,0.196c0.247,0.171 0.413,0.425 0.467,0.72c0.054,0.293 -0.008,0.591 -0.177,0.837l-1.306,1.903c10.428,-4.827 18.819,-13.125 23.683,-23.571c0.209,-0.45 0.659,-0.712 1.126,-0.704c0.165,0.003 0.332,0.039 0.492,0.113c0.612,0.284 0.876,1.009 0.592,1.618z"/>
   <path id="svg_9" fill="#3e3e3f" d="m43.466,111.785c-11.123,-4.885 -20.085,-13.538 -25.384,-24.439l-0.14,2.507c-0.018,0.299 -0.15,0.574 -0.373,0.773c-0.223,0.2 -0.51,0.3 -0.809,0.283c-0.592,-0.033 -1.056,-0.511 -1.059,-1.088c0,-0.033 0.001,-0.067 0.003,-0.094l0.337,-6.001c0.031,-0.562 0.361,-1.07 0.865,-1.326c0.503,-0.255 1.11,-0.222 1.582,0.087l5.031,3.293c0.316,0.207 0.505,0.556 0.507,0.933c0.001,0.221 -0.063,0.435 -0.183,0.618c-0.165,0.251 -0.416,0.422 -0.71,0.483c-0.292,0.061 -0.591,0.005 -0.841,-0.159l-1.931,-1.264c5.054,10.32 13.533,18.528 24.083,23.162c0.455,0.199 0.726,0.644 0.729,1.11c0.001,0.165 -0.032,0.333 -0.102,0.495c-0.271,0.618 -0.989,0.898 -1.605,0.627z"/>
   <path id="svg_10" fill="#3e3e3f" d="m63.993,41.151c-12.589,0 -22.847,10.258 -22.847,22.847c0,12.589 10.258,22.847 22.847,22.847c12.609,0 22.847,-10.258 22.847,-22.847c0.001,-12.588 -10.238,-22.847 -22.847,-22.847zm9.171,30.637c-0.413,3.058 -2.378,4.853 -5.217,5.751c-0.679,0.218 -1.407,0.315 -2.208,0.51l0,3.543l-2.961,0l0,-3.519c-5.897,-1.286 -8.445,-4.004 -7.984,-8.518l5.145,0c0.024,0.315 0.073,0.631 0.121,0.922c0.218,1.941 1.505,3.203 3.446,3.349c0.364,0.024 0.728,0.024 1.116,0.024c1.602,-0.073 2.669,-0.801 3.082,-2.135c0.485,-1.529 0.073,-3.203 -1.189,-4.028c-0.995,-0.631 -2.135,-1.043 -3.179,-1.577c-1.65,-0.825 -3.422,-1.456 -4.902,-2.5c-4.295,-3.082 -3.664,-9.901 1.068,-12.279c1.068,-0.534 2.281,-0.777 3.592,-1.213l0,-3.713l2.936,0l0,3.907c2.572,0.461 4.756,1.456 6.115,3.761c0.728,1.238 1.116,3.033 0.971,4.465l-5.193,0c-0.121,-0.68 -0.194,-1.335 -0.388,-1.942c-0.485,-1.48 -1.674,-2.208 -3.325,-2.184c-1.626,0.024 -2.548,0.631 -2.985,1.941c-0.534,1.602 -0.194,3.252 1.043,4.053c1.068,0.704 2.257,1.189 3.397,1.747c1.456,0.728 2.985,1.286 4.368,2.135c2.791,1.725 3.543,4.443 3.131,7.5z"/>
  </g>
 </g>
</svg>