<svg width="128" height="128" xmlns="http://www.w3.org/2000/svg">

 <g class="currentLayer">
  <title>Layer 1</title>
  <g class="selected" id="svg_1">
   <path id="svg_2" fill="#2d3e4f" d="m108.40988,16.5732l-88.27606,0c-5.97913,0 -8.46713,2.48801 -8.46713,8.37767l0,62.24318c0,5.88277 2.39853,8.32949 8.19184,8.32949l32.84306,0l0,3.81976c0,1.84621 -1.22336,3.37068 -2.7461,4.5579c-1.08571,0.8517 -2.32627,1.54167 -3.39477,2.05613c-1.00656,0.46629 -2.07678,0.89816 -3.14184,1.2182c-0.80352,0.24088 -1.34724,0.98935 -1.361,1.82729c-0.00344,0.18238 -0.00517,0.30627 -0.00517,0.30627c0,1.21303 0.98247,2.1955 2.19551,2.1955l39.43817,0c1.21303,0 2.1955,-0.98247 2.1955,-2.1955l0,-0.1084c0,-0.95494 -0.61598,-1.8032 -1.52618,-2.0871c-0.99796,-0.31316 -1.9701,-0.72094 -2.91644,-1.15626c-1.09087,-0.51618 -2.33315,-1.19926 -3.41198,-2.05613c-1.52274,-1.18722 -2.72889,-2.70996 -2.72889,-4.5579l0,-3.81976l33.1132,0c5.47499,0 7.92171,-2.5792 7.92171,-8.10065l0,-63.01918c-0.00345,-5.20485 -2.6291,-7.83051 -7.92343,-7.83051zm-2.67555,60.88734c-27.74661,-0.04818 -55.49838,-0.04818 -83.20197,-0.04818c-2.8545,0 -2.94397,-0.08947 -2.94397,-2.89579l0,-45.40526c0,-3.21411 0,-3.2554 3.48424,-3.2554l82.30209,0c2.94397,0 3.07646,0.08947 3.07646,2.80632c0,15.3926 -0.0413,30.73875 0.04817,46.035c0,2.03893 -0.54543,2.76331 -2.76502,2.76331z"/>
   <path id="svg_3" fill="#1D75B9" d="m37.050891,58.81253c0,4.03484 0,8.06968 0,12.10452c0,1.35584 -0.57812,1.93741 -1.92536,1.93741c-2.91128,0 -5.82084,0 -8.73212,0c-1.23884,0 -1.84449,-0.60738 -1.84449,-1.85827c-0.00172,-8.13677 0.00516,-16.27183 -0.00689,-24.40861c-0.00172,-1.09948 0.60566,-1.87031 1.85311,-1.85482c2.93708,0.03613 5.87417,0.03613 8.81126,0c1.23367,-0.01549 1.85654,0.74502 1.8531,1.85654c-0.02065,4.07441 -0.00861,8.14882 -0.00861,12.22323zm-3.1384,-10.9517c-2.08194,0 -4.14151,0 -6.22345,0c0,7.2954 0,14.57531 0,21.87588c2.08366,0 4.13979,0 6.22345,0c0,-7.30057 0,-14.58048 0,-21.87588z"/>
   <path id="svg_4" fill="#1D75B9" d="m52.066681,65.04115c0,1.99763 0.00172,3.99527 0,5.99118c-0.00172,1.2354 -0.59017,1.82041 -1.82385,1.82213c-2.94913,0 -5.89826,0.00172 -8.84911,0c-1.18722,0 -1.80492,-0.62114 -1.80492,-1.81353c0,-3.99526 0,-11.16506 0,-15.1586c0,-1.20959 0.61942,-1.82385 1.83589,-1.82385c2.94913,-0.00172 5.89826,-0.00172 8.84911,0c1.18207,0 1.78772,0.59877 1.79116,1.77567c0.00689,2.0114 0.00172,7.19733 0.00172,9.207z"/>
   <path id="svg_5" fill="#1D75B9" d="m54.618351,69.60422l12.47789,-12.47789c0,-1.65695 0,-3.3139 0,-4.97085l-12.47789,12.47789c0,1.65695 0,3.3139 0,4.97085z"/>
   <path id="svg_6" fill="#1D75B9" d="m54.618351,61.60165l12.47789,-12.47789c0,-1.65695 0,-3.3139 0,-4.97085l-12.47789,12.47789c0,1.65695 0,3.3139 0,4.97085z"/>
   <path id="svg_7" fill="#1D75B9" d="m56.462851,72.85446c0.96871,0 1.93913,0 2.90784,0l7.72555,-7.72556c0,-1.65695 0,-3.3139 0,-4.97085l-12.13204,12.13205c0.29594,0.38369 0.78976,0.56436 1.49865,0.56436z"/>
   <path id="svg_8" fill="#1D75B9" d="m59.990111,32.22046c-1.26809,0.00172 -2.53447,0.00344 -3.80256,0.00688c-0.7347,0.00172 -1.34208,0.46456 -1.50553,1.12528c-0.06195,0.25293 -0.06023,0.52479 -0.06023,0.78804c0,1.15109 0,2.30046 -0.00172,3.45155l5.37004,-5.37175z"/>
   <path id="svg_9" fill="#1D75B9" d="m54.618351,52.51853c0,0.35961 0,0.72094 0,1.08055l12.47789,-12.47789c0,-1.65695 0,-3.3139 0,-4.97085l-12.47789,12.47788c0,1.29563 0,2.59297 0,3.89031z"/>
   <path id="svg_10" fill="#1D75B9" d="m62.402411,72.85446c0.93085,0 1.8617,0 2.79255,0c1.31971,0 1.90128,-0.58501 1.90128,-1.91849c0,-0.92569 0,-1.85138 0,-2.77535l-4.69383,4.69384z"/>
   <path id="svg_11" fill="#1D75B9" d="m54.618351,45.5965l12.36433,-12.36432c-0.22368,-0.6005 -0.76223,-0.99968 -1.46596,-1.00312c-0.83106,-0.00344 -1.66384,-0.00516 -2.49489,-0.00688l-8.40176,8.40175c-0.00172,1.65695 -0.00172,3.3139 -0.00172,4.97257z"/>
   <g id="svg_12">
    <g id="svg_13">
     <g id="svg_14">
      <path id="svg_15" fill="#1D75B9" d="m92.062341,49.27517l7.6378,-5.02591c-4.53038,-5.93095 -12.68264,-7.72727 -19.26571,-4.31874l5.06377,7.69631c2.30046,-0.77084 4.87794,-0.13937 6.56414,1.64834z"/>
     </g>
     <g id="svg_16">
      <path id="svg_17" fill="#1D75B9" d="m95.942321,66.44689c1.01688,-0.66932 1.93053,-1.43843 2.73061,-2.28841l-7.42444,-5.51629c-0.09636,0.07571 -0.19787,0.14625 -0.30283,0.21508c-2.9044,1.9116 -6.80675,1.10463 -8.71663,-1.79804c-1.75502,-2.66867 -1.22163,-6.18044 1.13045,-8.21421l-5.01215,-7.61715c-6.53317,4.81599 -8.22625,13.96277 -3.70964,20.8263c4.66974,7.09581 14.2071,9.06247 21.30463,4.39272z"/>
     </g>
     <g id="svg_18">
      <g id="svg_19">
       <path id="svg_20" fill="#1D75B9" d="m100.211161,62.24516c3.15216,-4.63878 3.5978,-10.78997 0.82073,-15.9346l-7.66533,5.04311c0.69513,1.81353 0.49898,3.82837 -0.46801,5.45607l7.31261,5.43542zm-5.01043,-10.2084l5.17045,-3.40165c1.42983,3.68211 1.20615,7.78921 -0.6177,11.3027l-4.87966,-3.62533c0.49726,-1.36272 0.61254,-2.85277 0.32691,-4.27572z"/>
       <path id="svg_21" fill="#1D75B9" d="m100.211161,62.24516c3.15216,-4.63878 3.5978,-10.78997 0.82073,-15.9346l-7.66533,5.04311c0.69513,1.81353 0.49898,3.82837 -0.46801,5.45607l7.31261,5.43542zm-5.01043,-10.2084l5.17045,-3.40165c1.42983,3.68211 1.20615,7.78921 -0.6177,11.3027l-4.87966,-3.62533c0.49726,-1.36272 0.61254,-2.85277 0.32691,-4.27572z"/>
      </g>
     </g>
    </g>
   </g>
  </g>
 </g>
 <g>
  <title>Layer 2</title>
  <rect fill="none" y="0" x="0" height="100%" width="100%" id="backgroundrect"/>
 </g>
 <g>
  <title>background</title>
  <rect fill="none" id="canvas_background" height="130" width="130" y="-1" x="-1"/>
 </g>
</svg>