<svg width="128" height="128" xmlns="http://www.w3.org/2000/svg">

 <g>
  <title>background</title>
  <rect fill="none" id="canvas_background" height="402" width="582" y="-1" x="-1"/>
 </g>
 <g>
  <title>Layer 1</title>
  <g id="svg_1">
   <path id="svg_2" fill="#2E79BE" d="m125.105,59.492c-2.647,-9.264 -10.898,-15.51 -20.555,-15.551l-2.13,0c0.434,-8.168 -1.22,-14.724 -5.191,-20.473c-4.694,-6.824 -10.939,-11.084 -19.108,-13.007c-1.985,-0.476 -4.074,-0.703 -6.225,-0.703c-8.272,0 -19.563,3.805 -26.407,14.124c-2.709,-1.199 -5.687,-1.861 -8.83,-1.861c-11.539,0 -21.031,8.975 -21.837,20.307c-1.344,0.682 -2.647,1.489 -3.846,2.44c-3.226,2.544 -5.728,5.894 -7.258,9.719c-2.482,6.266 -2.109,13.235 1.013,19.17c3.371,6.39 8.499,10.484 15.034,12.035c0,0.021 0.124,0.041 1.592,0.062l0,-6.783c-5.314,-0.662 -7.486,-3.536 -10.195,-8.706c-2.13,-4.033 -2.378,-8.809 -0.682,-13.111c1.055,-2.606 2.771,-4.922 4.984,-6.68c0.083,-0.062 0.165,-0.103 0.248,-0.165c1.055,-0.786 2.192,-1.468 3.371,-1.964c0.103,-0.041 0.393,-0.124 0.6,-0.165c0.682,-0.207 1.696,-0.496 2.647,-1.096c-0.227,-1.013 -0.352,-2.068 -0.352,-3.164c0,-8.086 6.576,-14.682 14.682,-14.682c4.074,0 7.734,1.654 10.381,4.343c1.158,-0.414 2.151,-1.261 2.668,-2.399c0.558,-1.179 1.158,-2.275 1.861,-3.309c5.273,-7.92 13.959,-10.836 20.328,-10.836c1.592,0 3.123,0.186 4.57,0.496c6.307,1.489 11.167,4.777 14.786,10.05c3.267,4.777 4.467,10.422 3.764,17.805l-0.062,0.806c-0.145,1.282 0.29,2.544 1.158,3.516c0.868,0.951 2.109,1.51 3.391,1.51l5.004,0c6.39,0.021 11.87,4.157 13.607,10.278c1.158,4.053 0.352,8.417 -2.192,11.911c-2.068,2.833 -5.004,4.715 -8.272,5.439l0,7.362c5.625,-0.765 10.712,-3.805 14.145,-8.52c3.887,-5.315 5.087,-11.953 3.308,-18.198z"/>
   <path id="svg_3" fill="#3e3e3f" d="m99.091,110.735c0.041,-0.31 0.062,-0.641 0.062,-0.972l0,-34.39c0,-3.598 -2.709,-6.493 -6.059,-6.493l-58.192,0c-3.329,0 -6.038,2.895 -6.038,6.493l0,34.39c0,0.331 0.021,0.662 0.062,0.972l-8.561,0l0,1.013c0,3.598 2.709,6.493 6.038,6.493l75.211,0c3.329,0 6.038,-2.895 6.038,-6.493l0,-1.013l-8.561,0zm-7.321,0l-19.17,0c0.062,0.227 0.083,0.455 0.083,0.682c0,1.737 -1.447,3.185 -3.205,3.185l-10.96,0c-1.758,0 -3.185,-1.448 -3.185,-3.185c0,-0.228 0.021,-0.455 0.083,-0.682l-19.17,0l0,-35.485l55.524,0l0,35.485z"/>
  </g>
 </g>
</svg>