<svg width="128" height="128" xmlns="http://www.w3.org/2000/svg">

 <g>
  <title>background</title>
  <rect fill="none" id="canvas_background" height="130" width="130" y="-1" x="-1"/>
 </g>
 <g>
  <title>Layer 1</title>
  <g stroke="null" id="svg_1">
   <path stroke="null" id="svg_2" fill="#414143" d="m110.13076,12.394l-93.68369,0c-6.344662,0 -8.986069,2.641408 -8.986069,8.890979l0,66.058087c0,6.242527 2.546317,8.839911 8.693753,8.839911l34.856017,0l0,4.05368c0,1.959925 -1.297812,3.576466 -2.914353,4.837298c-1.151654,0.903361 -2.468836,1.635912 -3.601119,2.183564c-1.06889,0.494824 -2.204695,0.952668 -3.335218,1.292529c-0.852294,0.255336 -1.429882,1.05128 -1.445731,1.940554c-0.003522,0.193703 -0.005283,0.324013 -0.005283,0.324013c0,1.287246 1.042476,2.329722 2.329722,2.329722l41.855748,0c1.287246,0 2.329722,-1.042476 2.329722,-2.329722l0,-0.114461c0,-1.01254 -0.653308,-1.912379 -1.620063,-2.215261c-1.060085,-0.332817 -2.091995,-0.766008 -3.09573,-1.227374c-1.158698,-0.547652 -2.47588,-1.273159 -3.62049,-2.183564c-1.616542,-1.260832 -2.894983,-2.877374 -2.894983,-4.837298l0,-4.05368l35.141289,0c5.811097,0 8.406721,-2.736498 8.406721,-8.596902l0,-66.882206c-0.003522,-5.522303 -2.791088,-8.309869 -8.410242,-8.309869zm-2.838633,64.6194c-29.446414,-0.051067 -58.898111,-0.051067 -88.300501,-0.051067c-3.028814,0 -3.123905,-0.095091 -3.123905,-3.074599l0,-48.188083c0,-3.410938 0,-3.454961 3.697971,-3.454961l87.346073,0c3.123905,0 3.26478,0.095091 3.26478,2.977747c0,16.336227 -0.044023,32.621386 0.051067,48.855478c-0.001761,2.165954 -0.58111,2.935485 -2.935485,2.935485z"/>
   <path stroke="null" id="svg_3" fill="#1D75B9" d="m95.888289,35.872593c-1.741568,0 -3.278868,0.866382 -4.212165,2.190608c-1.549626,0.001761 -3.109817,-0.005283 -4.648878,-0.033458c-2.056776,-0.038741 -3.56414,0.887513 -4.486871,2.752347c-2.873852,5.811097 -5.830467,11.706719 -8.691993,17.408638l-2.023318,4.036071c-0.195464,0.389167 -0.3381,0.602241 -0.422625,0.71318c-0.017609,-0.001761 -0.03698,-0.003522 -0.058111,-0.005283c-0.005283,0 -0.012327,-0.001761 -0.017609,-0.001761c-0.05635,-0.089808 -0.167289,-0.297599 -0.311686,-0.734311c-2.567448,-7.756934 -7.366006,-22.024058 -9.123422,-27.208261c-0.515955,-1.521451 -1.884204,-2.576253 -3.486658,-2.685431c-1.602454,-0.110939 -3.104535,0.746638 -3.824758,2.183564l-0.278228,0.554696c-1.095304,2.183564 -2.158911,4.307256 -3.222518,6.432708c-0.538847,1.077694 -1.077694,2.15715 -1.614781,3.236605c-0.878708,1.762699 -1.757417,3.52716 -2.643169,5.286337c-0.128549,0.257097 -0.227161,0.405016 -0.288794,0.486019c-0.029936,-0.001761 -0.066916,-0.003522 -0.109178,-0.007044c-0.008805,-0.001761 -0.017609,-0.001761 -0.024653,-0.003522c-0.042263,-0.068677 -0.1127,-0.209552 -0.193703,-0.457844c-1.109391,-3.400372 -3.328174,-9.931693 -4.205121,-12.481532c-0.424386,-1.230896 -1.479188,-2.153628 -2.755869,-2.407203c-1.27668,-0.253575 -2.606189,0.193703 -3.476093,1.176307c-0.489541,0.552935 -0.913927,1.03191 -1.310138,1.336552c-0.320491,0.24477 -0.685005,0.368036 -0.799466,0.376841c-1.459818,0.103895 -2.953094,0.07572 -4.532656,0.047545c-0.387406,-0.007044 -0.774813,-0.014088 -1.160458,-0.01937c-1.646478,-0.015848 -2.990074,1.292529 -3.011205,2.933724c-0.021131,1.641195 1.292529,2.990074 2.933724,3.011205c0.376841,0.005283 0.753682,0.012327 1.130523,0.01937c1.639434,0.029936 3.335218,0.059872 5.059176,-0.061633c1.139327,-0.081003 2.356136,-0.505389 3.423264,-1.186873c1.009018,2.970703 2.292742,6.776091 3.051706,9.10053c1.123479,3.437352 3.50779,4.363606 5.310991,4.534417c2.784044,0.264141 4.895409,-0.989647 6.270702,-3.724385c0.889274,-1.766221 1.771504,-3.535965 2.653734,-5.307469c0.537086,-1.075933 1.072412,-2.153628 1.611259,-3.229561c0.457844,-0.915688 0.915688,-1.829615 1.377054,-2.748825c2.211739,6.561257 5.585697,16.614455 7.593167,22.680888c0.959711,2.902027 2.761152,4.509764 5.353253,4.780948c0.260619,0.026414 0.510672,0.040502 0.751921,0.040502c3.65923,0 5.152506,-2.975986 5.663178,-3.99733l2.023318,-4.03431c2.769956,-5.524064 5.633242,-11.229505 8.426091,-16.869791c1.37001,0.021131 2.743542,0.024653 4.102987,0.022892c0.933297,1.310138 2.463553,2.167715 4.194556,2.167715c2.845677,0 5.152506,-2.306829 5.152506,-5.152506c0.003522,-2.845677 -2.303308,-5.152506 -5.148984,-5.152506z"/>
  </g>
 </g>
</svg>