<?xml version="1.0" ?><!DOCTYPE svg  PUBLIC '-//W3C//DTD SVG 1.1//EN'  'http://www.w3.org/Graphics/SVG/1.1/DTD/svg11.dtd'><svg enable-background="new 0 0 128 128" height="128px" id="Layer_1" version="1.1" viewBox="0 0 128 128" width="128px" xml:space="preserve" xmlns="http://www.w3.org/2000/svg" xmlns:xlink="http://www.w3.org/1999/xlink"><g><path d="M98.752,35.488c-3.909,0-7.079,3.17-7.079,7.079c0,0.229,0.018,0.44,0.035,0.652l-10.09,4.015h-0.018   c-1.268-1.831-3.381-3.029-5.794-3.029c-2.166,0-4.103,0.968-5.424,2.5L59.36,41.14c0.053-0.37,0.088-0.74,0.088-1.127   c0-3.927-3.17-7.097-7.079-7.097c-3.909,0-7.079,3.17-7.079,7.097v0.07l-10.407,4.173c-1.285-1.708-3.328-2.8-5.635-2.8   c-3.909,0-7.079,3.17-7.079,7.079c0,3.909,3.17,7.079,7.079,7.079c3.909,0,7.079-3.17,7.079-7.079c0-0.211,0-0.405-0.035-0.599   l10.161-4.05c1.25,1.937,3.434,3.205,5.917,3.205c2.184,0,4.156-1.004,5.441-2.553l11.006,5.565   c-0.07,0.387-0.106,0.775-0.106,1.18c0,3.909,3.187,7.079,7.097,7.079c3.909,0,7.079-3.17,7.079-7.079c0-0.088,0-0.194-0.018-0.282   l10.302-4.121c1.268,1.69,3.293,2.765,5.582,2.765c3.909,0,7.079-3.17,7.079-7.079C105.831,38.657,102.661,35.488,98.752,35.488z    M34.148,49.852c-0.03,0.118-0.089,0.267-0.119,0.385c-0.83,2.431-3.468,3.913-5.928,3.29l-0.208-0.059   c-2.49-0.741-4.001-3.32-3.438-5.898c0.356-1.512,1.363-2.786,2.757-3.468c0.652-0.326,1.393-0.474,2.134-0.474   c0.741,0,1.482,0.148,2.134,0.474c0.148,0.059,0.297,0.148,0.474,0.237c0.563,0.356,1.097,0.889,1.511,1.541   c0.385,0.534,0.623,1.186,0.741,1.838C34.356,48.459,34.326,49.141,34.148,49.852z M57.146,41.092   c-0.03,0.119-0.089,0.267-0.119,0.385c-0.83,2.431-3.468,3.913-5.928,3.29l-0.208-0.059c-2.49-0.741-4.001-3.32-3.438-5.898   c0.356-1.512,1.363-2.786,2.757-3.468c0.652-0.326,1.393-0.474,2.134-0.474c0.741,0,1.482,0.148,2.134,0.474   c0.148,0.059,0.297,0.148,0.474,0.237c0.563,0.356,1.097,0.889,1.511,1.541c0.385,0.534,0.623,1.186,0.741,1.838   C57.354,39.699,57.324,40.38,57.146,41.092z M80.528,52.467c-0.03,0.118-0.089,0.267-0.119,0.385   c-0.83,2.431-3.468,3.913-5.928,3.29l-0.208-0.059c-2.49-0.741-4.001-3.32-3.438-5.898c0.356-1.512,1.364-2.786,2.757-3.468   c0.652-0.326,1.393-0.474,2.134-0.474c0.741,0,1.482,0.148,2.134,0.474c0.148,0.059,0.297,0.148,0.474,0.237   c0.563,0.356,1.097,0.889,1.512,1.541c0.385,0.534,0.622,1.186,0.741,1.838C80.735,51.074,80.706,51.756,80.528,52.467z    M103.522,43.707c-0.03,0.119-0.089,0.267-0.119,0.385c-0.83,2.431-3.468,3.913-5.928,3.29l-0.208-0.059   c-2.49-0.741-4.001-3.32-3.438-5.898c0.356-1.512,1.363-2.786,2.757-3.468c0.652-0.326,1.393-0.474,2.134-0.474   c0.741,0,1.482,0.148,2.134,0.474c0.148,0.059,0.297,0.148,0.474,0.237c0.563,0.356,1.097,0.889,1.511,1.541   c0.385,0.534,0.623,1.186,0.741,1.838C103.73,42.314,103.7,42.996,103.522,43.707z" fill="#2E79BE"/><path d="M116.983,6.037h-3.52h-1.951H11.584c-7.103,0-10.071,2.947-10.071,10.008   c-0.021,24.786-0.021,49.572,0,74.336c0,6.997,2.862,9.902,9.796,9.902c13.209,0.021,26.44,0.021,39.649,0   c-0.042,0.742-0.106,1.484-0.148,2.226c-0.148,2.184-0.233,4.389-0.53,6.552c-0.085,0.636-0.233,1.23-0.445,1.802   c-0.636,1.929-1.908,3.498-3.732,4.643c-0.678,0.424-1.357,0.827-2.035,1.251c-1.187,0.721-2.396,1.421-3.562,2.163   c-0.53,0.318-1.039,0.806-1.293,1.336c-0.403,0.869-0.021,1.505,0.954,1.675c0.318,0.042,0.636,0,0.954,0   c15.393,0,30.786,0.021,46.158,0c0.827,0,1.908,0.297,2.141-0.89c0.212-1.06-0.551-1.654-1.378-2.141   c-1.251-0.742-2.502-1.505-3.753-2.247c-0.466-0.297-0.933-0.573-1.399-0.848c-1.929-1.145-3.265-2.65-4.007-4.537   c-0.382-0.912-0.594-1.93-0.678-3.032c-0.17-2.608-0.403-5.237-0.615-7.951h39.395c6.53,0,9.52-3.032,9.52-9.626V15.451   C126.482,9.175,123.301,6.037,116.983,6.037z M68.662,93.18c-0.975,1.717-2.799,2.884-4.792,2.799   c-1.972-0.064-3.647-1.187-4.537-2.799c-0.445-0.806-0.7-1.76-0.7-2.778c0.042-2.99,2.438-5.428,5.364-5.449   c3.032,0,5.407,2.544,5.343,5.725C69.319,91.568,69.065,92.437,68.662,93.18z M116.241,80.331   c-34.73-0.064-69.46-0.042-104.19-0.042c-3.604,0-3.71-0.127-3.71-3.774V17.21c0-4.219,0.042-4.241,4.389-4.241   c12.544-0.02,81.606-0.021,98.783-0.021h1.951h2.332c3.668,0,3.838,0.148,3.838,3.689c0.021,20.058-0.021,40.094,0.064,60.131   C119.718,79.355,118.976,80.331,116.241,80.331z" fill="#2D3E4F"/></g></svg>