<svg width="128" height="128" xmlns="http://www.w3.org/2000/svg">
 <g>
  <title>background</title>
  <rect x="-1" y="-1" width="28.7519" height="28.7519" id="canvas_background" fill="none"/>
 </g>

 <g>
  <title>Layer 1</title>
  <g stroke="null" id="svg_1">
   <path stroke="null" d="m50.932351,83.231646c-0.278873,1.22751 -0.887053,2.572459 -1.812675,3.867077c-0.278873,0.391462 -0.575547,0.757757 -0.887053,1.098887c-0.46281,0.525677 -0.964188,0.987041 -1.468533,1.384094c-1.877943,1.473572 -3.883456,2.010432 -5.171017,1.193956c-1.533801,-0.975856 -1.56347,-3.576276 -0.231405,-6.257786c0.083068,-0.0727 0.166137,-0.150992 0.243272,-0.229284c-0.0356,-0.022369 -0.065268,-0.039147 -0.094935,-0.055923c0.249205,-0.469754 0.539945,-0.947895 0.875186,-1.412057c0.539945,-0.757757 1.142193,-1.423241 1.765206,-1.982471c2.032213,-1.842663 4.334399,-2.589236 5.761399,-1.686079c1.109558,0.701833 1.432933,2.25929 1.020556,4.079584l-0.000002,0.000002z" fill="#2E79BE" id="svg_2"/>
   <path stroke="null" d="m42.405958,79.688923c-0.261073,0.578802 -0.593347,1.163199 -1.002756,1.742003c-0.492478,0.682261 -1.041323,1.277841 -1.60797,1.78674c-0.0178,-0.008388 -0.047468,-0.025165 -0.065268,-0.036351c-0.0267,0.053127 -0.047468,0.106254 -0.083068,0.156584c-1.71774,1.470776 -3.613483,2.049578 -4.812042,1.28623c-0.623015,-0.394258 -0.955288,-1.076518 -1.029456,-1.934936c-0.0089,-0.053127 -0.0089,-0.114643 -0.0089,-0.176158c-0.038568,-0.743776 0.121637,-1.610583 0.465777,-2.510944c0.240305,-0.657096 0.584447,-1.31419 1.020556,-1.96849c0.0089,-0.016777 0.0178,-0.025165 0.0267,-0.044739c0.157237,-0.246062 0.326342,-0.480938 0.501378,-0.710222c1.643571,-2.074743 3.779619,-3.291069 5.349022,-3.106524c0.091968,0.008388 0.186905,0.025165 0.278873,0.053127c0.112737,0.025165 0.204705,0.061515 0.305573,0.095069c0.091968,0.036351 0.175037,0.078292 0.261073,0.123031c0.0089,0.008388 0.0178,0.008388 0.0267,0.016777c0.100868,0.061515 0.204705,0.131419 0.296673,0.209711c1.050225,0.931119 1.041323,2.924774 0.077135,5.019091l0,0.000002z" fill="#2E79BE" id="svg_3"/>
   <path stroke="null" d="m62.478882,96.219767l-0.005933,0c-0.071202,0.123031 -0.15427,0.24047 -0.243272,0.363499c-1.77114,2.471797 -4.316599,3.772007 -5.690197,2.902405c-1.082858,-0.687853 -1.112525,-2.522128 -0.207672,-4.476638c0.231405,-0.503307 0.528078,-1.020595 0.887053,-1.523902c0.011867,-0.022369 0.029667,-0.039147 0.041535,-0.061515c0.70015,-0.975856 1.521935,-1.764371 2.34372,-2.315213c0.005933,0 0.005933,0 0.005933,-0.005592c1.254928,-0.841641 2.509858,-1.110071 3.340543,-0.5816c1.305363,0.830457 1.079891,3.324624 -0.471712,5.698556l0.000002,0z" fill="#2E79BE" id="svg_4"/>
   <path stroke="null" d="m59.334143,86.8974c-0.284807,0.919933 -0.729817,1.892994 -1.320196,2.880035c-0.231405,0.385869 -0.486545,0.774533 -0.762451,1.160403c-0.450943,0.626337 -0.928588,1.205141 -1.427,1.730817c-0.391608,0.425015 -0.803985,0.819272 -1.213395,1.160403l0,0.005592c-2.050013,1.730817 -4.168262,2.45502 -5.435057,1.646933c-1.159993,-0.735388 -1.32613,-2.583644 -0.611147,-4.773029c0.189872,-0.598377 0.44501,-1.221918 0.768385,-1.853848c0.356008,-0.704629 0.792118,-1.423241 1.296463,-2.12787c0.676415,-0.947895 1.421066,-1.78674 2.18055,-2.482981l0,-0.005592c0.634882,-0.5816 1.284596,-1.076518 1.913543,-1.456794c1.551601,-0.942303 3.014203,-1.216326 3.978391,-0.603969c1.15406,0.729796 1.320196,2.550089 0.631915,4.719902z" fill="#2E79BE" id="svg_5"/>
   <path stroke="null" d="m41.791843,81.718929c-1.913543,2.975105 -4.930712,4.552134 -6.725587,3.528743c-0.815852,-0.47255 -1.234161,-1.400872 -1.263828,-2.555681c-0.0089,-0.053127 -0.0089,-0.114643 -0.0089,-0.176158c0,-1.330969 0.501378,-2.94155 1.486335,-4.48223c0.0089,-0.016777 0.0178,-0.025165 0.0267,-0.044739c0.157237,-0.246062 0.326342,-0.480938 0.501378,-0.710222c1.587203,-2.09991 3.723251,-3.316235 5.349022,-3.106524c0.091968,0.008388 0.186905,0.025165 0.278873,0.053127c0.112737,0.025165 0.204705,0.061515 0.305573,0.095069c0.091968,0.036351 0.175037,0.078292 0.261073,0.123031c0.0089,0.008388 0.0178,0.008388 0.0267,0.016777c0.100868,0.061515 0.204705,0.131419 0.296673,0.209711c1.4804,1.210734 1.275696,4.247353 -0.534012,7.049096l-0.000002,0.000002z" fill="#2E79BE" id="svg_6"/>
   <path stroke="null" d="m104.573875,75.620524c-1.246028,2.980697 -4.616239,4.546542 -8.244555,3.855893c-0.222505,-0.044739 -0.430177,-0.089476 -0.783218,-0.150992c0.142403,2.952735 -0.973088,5.253967 -3.738086,6.626877c-2.732363,1.356133 -5.337156,0.872399 -7.909313,-0.752165c0.080102,3.296661 -1.198561,5.692962 -4.328466,6.926065c-3.082438,1.219122 -5.799965,0.226488 -8.372125,-1.702856c-0.12757,0.480938 -0.192838,0.738184 -0.27294,1.009411c-0.670482,2.393505 -2.557324,4.096361 -4.809076,4.71431c1.548635,-3.372157 1.070991,-6.565362 -1.391398,-8.131206c-0.655648,-0.405442 -1.406231,-0.662688 -2.204283,-0.721408c0.958255,-3.416896 0.222505,-6.1739 -2.029246,-7.619511c-1.756306,-1.115664 -4.120794,-1.098887 -6.517915,0.044739c-0.367875,-1.294618 -1.151093,-2.362748 -2.284386,-3.07297c-1.4537,-0.933915 -3.340543,-1.098887 -5.257054,-0.556434c-0.207672,-1.490349 -0.86332,-2.757004 -1.963978,-3.660162c-0.12757,-0.106254 -0.25514,-0.195731 -0.382708,-0.285207l-0.542912,-0.346723c-0.192838,-0.089476 -0.382708,-0.18175 -0.59038,-0.271227l-0.160203,-0.044739c-0.175037,-0.075496 -0.367875,-0.120235 -0.46281,-0.150992c-0.287773,-0.075496 -0.560713,-0.120235 -0.73575,-0.134215c-2.812464,-0.377481 -6.087739,1.311394 -8.372125,4.306072c-0.222505,0.301984 -0.430177,0.587192 -0.623015,0.903156l-0.12757,0.18175c-1.005723,1.62736 -1.628736,3.344196 -1.806741,4.96876l-1.406231,-1.219122l-3.913123,-3.433673l-8.692532,-7.695007l-0.623015,-0.542453c-0.542912,-0.63193 -0.815852,-1.431629 -0.765418,-2.25929l0.222505,-0.903156l0,-0.016777c0,0 4.714141,-19.318605 4.728974,-19.380121c0.287773,-1.143626 0.447977,-2.393505 1.486335,-3.162446c1.103625,-0.81368 2.586993,-0.436199 3.818188,-0.257246c1.165926,0.150992 2.31702,0.164972 3.482946,0.044739c2.652261,-0.271227 5.016747,-1.188363 6.900624,-2.966715c0.014833,-0.01398 0.047468,-0.030757 0.065268,-0.044739c0.703117,-0.707426 1.421066,-1.400872 2.141983,-2.094317c1.278663,-1.235898 2.794664,-2.318009 4.298797,-3.32742c1.183726,-0.796903 1.756306,-0.707426 3.147704,0.01398l3.227808,1.957306l-0.130537,0.10905l-9.632986,8.463948c-2.429756,1.943324 -2.845098,3.91461 -2.747196,5.239987c0.112737,1.686079 1.053191,2.997474 1.901676,3.825134c0.575547,0.556434 1.103625,0.917137 1.311296,1.040168c0.99089,0.662688 2.236918,0.992634 3.705451,0.992634c2.845098,0 5.814799,-1.280637 6.135207,-1.431629l0.415343,-0.18175l0.320407,-0.301984c0.830685,-0.752165 4.120794,-3.313439 6.007637,-4.742271c1.646538,-1.235898 3.530414,-1.851052 5.799965,-1.851052c3.898289,0 8.92987,1.926548 14.17209,5.390979c6.357712,4.216596 13.068464,8.086467 19.571546,11.805348c2.717529,1.579825 5.527026,3.193204 8.292023,4.817768c1.29053,1.80911 1.56347,4.020865 0.667515,6.1739l0.000002,-0.000003z" fill="#3E3E3F" id="svg_7"/>
   <path stroke="null" d="m119.769489,61.952938c-4.402634,1.244287 -10.439938,2.119482 -12.816292,6.338874c-9.799123,-5.85514 -19.874153,-11.240526 -29.376604,-17.531865c-3.818188,-2.522128 -9.18501,-5.357426 -14.403495,-5.776848c-3.091338,-0.25445 -6.129274,0.34113 -8.7667,2.337582c0,0 -5.004881,3.791581 -6.212342,4.918429c0,0 -4.904012,2.180998 -7.206198,0.629134c0,0 -4.503502,-2.731839 -0.175037,-6.145939l10.291601,-9.042752l1.124393,-0.989838c0,0 0.901887,-1.051352 3.761819,-1.121256l13.273169,-0.357907c0,0 1.765206,-0.55923 6.138174,0.419422l17.886441,6.397593c2.219118,0.796903 5.645695,0.411034 7.654175,-0.612357c2.842131,-1.44561 4.939612,-3.861485 7.345633,-5.925044c0.406443,-0.349519 0.833653,-0.685057 1.266795,-1.003819c0.40941,-0.301984 0.765418,-0.732592 1.323163,-0.74098c1.658405,-0.033553 2.168683,1.658117 2.705661,2.84089c0.41831,0.90036 0.83662,1.803517 1.243061,2.703878c2.005513,4.395548 3.975424,8.813467 6.16784,13.113947c1.059125,2.074743 2.070781,4.211003 3.046836,6.302523c1.263828,2.703878 -2.15385,2.659139 -4.272097,3.246332l0.000003,0.000002z" fill="#2E79BE" id="svg_8"/>
   <path stroke="null" d="m12.771248,65.383817c-0.320407,1.235898 -1.643571,1.990859 -2.954868,1.688875l-3.094304,-0.715814c-1.311296,-0.301984 -2.112315,-1.549068 -1.791908,-2.784966l5.675362,-21.809976c0.320407,-1.235898 1.643571,-1.990859 2.954868,-1.688875l3.094304,0.715814c1.311296,0.301984 2.112315,1.549068 1.791908,2.784966l-5.675362,21.809976z" fill="#2E79BE" id="svg_9"/>
  </g>
 </g>
</svg>