<svg width="128" height="128" xmlns="http://www.w3.org/2000/svg">

 <g>
  <title>background</title>
  <rect fill="none" id="canvas_background" height="402" width="582" y="-1" x="-1"/>
 </g>
 <g>
  <title>Layer 1</title>
  <g id="svg_1">
   <path id="svg_2" fill="#414143" d="m81.118,89.212c-0.028,-2.679 -1.114,-3.751 -3.779,-3.765c-8.545,-0.028 -17.062,-0.028 -25.592,0.014c-2.82,0 -3.849,1.072 -3.878,3.934c-0.042,3.61 -0.028,7.234 -0.014,10.857c0.014,4.315 0.592,4.907 4.935,4.935c3.356,0.028 6.698,0 10.237,0l2.778,0.028c3.878,0 7.614,0.028 11.365,-0.014c2.919,-0.028 3.92,-0.987 3.948,-3.835c0.057,-4.046 0.071,-8.107 0,-12.154zm-5.884,8.561l-21.461,0c-1.311,0 -2.383,-1.1 -2.383,-2.439c0,-1.354 1.072,-2.453 2.383,-2.453l21.461,0c1.311,0 2.383,1.1 2.383,2.453c0,1.339 -1.071,2.439 -2.383,2.439z"/>
   <path id="svg_3" fill="#414143" d="m35.662,89.212c-0.028,-2.679 -1.114,-3.751 -3.779,-3.765c-8.545,-0.028 -17.062,-0.028 -25.592,0.014c-2.82,0 -3.849,1.072 -3.878,3.934c-0.042,3.61 -0.028,7.234 -0.014,10.857c0.014,4.315 0.592,4.907 4.935,4.935c3.356,0.028 6.698,0 10.237,0l2.778,0.028c3.878,0 7.614,0.028 11.365,-0.014c2.919,-0.028 3.92,-0.987 3.948,-3.835c0.056,-4.046 0.071,-8.107 0,-12.154zm-5.884,8.561l-21.461,0c-1.311,0 -2.383,-1.1 -2.383,-2.439c0,-1.354 1.072,-2.453 2.383,-2.453l21.461,0c1.311,0 2.383,1.1 2.383,2.453c0,1.339 -1.072,2.439 -2.383,2.439z"/>
   <path id="svg_4" fill="#414143" d="m125.567,89.212c-0.028,-2.679 -1.114,-3.751 -3.779,-3.765c-8.545,-0.028 -17.062,-0.028 -25.592,0.014c-2.82,0 -3.849,1.072 -3.878,3.934c-0.042,3.61 -0.028,7.234 -0.014,10.857c0.014,4.315 0.592,4.907 4.935,4.935c3.356,0.028 6.698,0 10.237,0l2.778,0.028c3.878,0 7.614,0.028 11.365,-0.014c2.919,-0.028 3.92,-0.987 3.948,-3.835c0.057,-4.046 0.071,-8.107 0,-12.154zm-5.884,8.561l-21.461,0c-1.311,0 -2.383,-1.1 -2.383,-2.439c0,-1.354 1.072,-2.453 2.383,-2.453l21.461,0c1.311,0 2.383,1.1 2.383,2.453c0,1.339 -1.071,2.439 -2.383,2.439z"/>
   <path id="svg_5" fill="#414143" d="m83.374,22.794c-5.554,-0.043 -11.109,0 -16.533,0l-4.252,0.022c-5.902,0 -11.586,-0.065 -17.271,0c-4.578,0.065 -6.422,1.757 -6.509,6.14c-0.108,6.097 -0.108,12.193 0,18.29c0.087,4.318 1.736,6.01 6.118,6.032c13.126,0.108 26.253,0.13 39.379,0.065c4.274,-0.022 5.901,-1.844 5.945,-6.162c0.043,-5.836 0.022,-11.672 0.022,-17.509c-0.021,-5.207 -1.67,-6.856 -6.899,-6.878zm-2.719,24.063l-31.793,0c-1.34,0 -2.423,-1.083 -2.423,-2.423c0,-1.34 1.083,-2.423 2.423,-2.423l31.793,0c1.339,0 2.423,1.083 2.423,2.423c0,1.34 -1.083,2.423 -2.423,2.423zm0,-12.714l-31.793,0c-1.34,0 -2.423,-1.083 -2.423,-2.423c0,-1.339 1.083,-2.423 2.423,-2.423l31.793,0c1.339,0 2.423,1.083 2.423,2.423c0,1.34 -1.083,2.423 -2.423,2.423z"/>
   <path id="svg_6" fill="#2E79BE" d="m66.662,71.113c0,2.625 0,5.184 0,7.82c-1.401,0 -2.707,0 -4.151,0c0,-2.585 0,-5.173 0,-7.901c-0.59,0 -1.045,0 -1.5,0c-9.168,0 -21.896,0.003 -31.064,0c-4.52,-0.001 -7.644,2.682 -8.355,7.184c-0.036,0.228 -0.101,0.452 -0.165,0.732c-1.289,0 -2.559,0 -4.161,0c0.283,-1.384 0.416,-2.729 0.839,-3.975c1.644,-4.841 6.271,-8.099 11.446,-8.11c9.246,-0.018 22.052,-0.005 31.298,-0.005c0.499,0 0.998,0 1.588,0c0,-2.82 0,-5.536 0,-8.352c1.424,0 2.757,0 4.184,0c0,2.731 0,5.448 0,8.352c0.538,0 0.986,0 1.435,0c9.246,0 22.053,-0.008 31.298,0.003c6.085,0.007 10.935,3.958 12.173,9.914c0.14,0.674 0.139,1.378 0.212,2.155c-1.383,0 -2.655,0 -4.056,0c-0.066,-0.41 -0.141,-0.854 -0.21,-1.3c-0.545,-3.537 -3.878,-6.562 -7.473,-6.578c-9.753,-0.045 -23.067,-0.013 -32.82,-0.01c-0.112,0.001 -0.226,0.031 -0.518,0.071z"/>
  </g>
 </g>
</svg>